<svg width="44" height="44" viewBox="0 0 44 44" fill="none" xmlns="http://www.w3.org/2000/svg">
<g style="mix-blend-mode:multiply" opacity="0.75">
<path d="M22.2356 20.4528C20.9651 19.1823 20.3299 18.5471 20.0226 17.8452C19.5678 16.8062 19.5678 15.6245 20.0226 14.5856C20.3299 13.8837 20.9651 13.2485 22.2356 11.978C23.506 13.2485 24.1412 13.8837 24.4485 14.5856C24.9033 15.6245 24.9033 16.8062 24.4485 17.8452C24.1412 18.5471 23.506 19.1823 22.2356 20.4528Z" fill="#9E00FF"/>
<path d="M23.9585 21.4577C24.4235 19.7223 24.656 18.8546 25.1103 18.2374C25.7826 17.3241 26.806 16.7332 27.9331 16.6077C28.6947 16.5228 29.5624 16.7553 31.2979 17.2203C30.8328 18.9558 30.6003 19.8235 30.1461 20.4406C29.4738 21.354 28.4504 21.9448 27.3233 22.0704C26.5617 22.1552 25.694 21.9227 23.9585 21.4577Z" fill="#9E00FF"/>
<path d="M24.2414 23.0084C26.0038 22.6596 26.8851 22.4851 27.6393 22.6203C28.7557 22.8203 29.7376 23.4778 30.3478 24.4337C30.7602 25.0796 30.9346 25.9608 31.2835 27.7233C29.521 28.0722 28.6398 28.2466 27.8855 28.1114C26.7692 27.9114 25.7873 27.2539 25.177 26.298C24.7647 25.6521 24.5902 24.7709 24.2414 23.0084Z" fill="#9E00FF"/>
<path d="M22.2356 24.5421C23.506 25.8125 24.1412 26.4477 24.4485 27.1497C24.9033 28.1886 24.9033 29.3703 24.4485 30.4092C24.1412 31.1112 23.506 31.7464 22.2356 33.0168C20.9651 31.7464 20.3299 31.1112 20.0226 30.4092C19.5678 29.3703 19.5678 28.1886 20.0226 27.1497C20.3299 26.4477 20.9651 25.8125 22.2356 24.5421Z" fill="#9E00FF"/>
<path d="M20.4544 23.4742C19.9947 25.2111 19.7649 26.0795 19.3125 26.698C18.643 27.6134 17.6214 28.2074 16.4947 28.3364C15.7333 28.4236 14.8649 28.1937 13.1281 27.734C13.5878 25.9972 13.8176 25.1287 14.27 24.5102C14.9395 23.5948 15.9611 23.0009 17.0878 22.8719C17.8492 22.7847 18.7176 23.0145 20.4544 23.4742Z" fill="#9E00FF"/>
<path d="M20.3077 21.7456C18.5571 22.1495 17.6817 22.3514 16.9236 22.2399C15.8016 22.0748 14.7995 21.4484 14.1597 20.5121C13.7273 19.8794 13.5254 19.0041 13.1216 17.2534C14.8723 16.8495 15.7476 16.6476 16.5057 16.7591C17.6278 16.9242 18.6298 17.5506 19.2696 18.4869C19.702 19.1196 19.9039 19.9949 20.3077 21.7456Z" fill="#9E00FF"/>
</g>
<g style="mix-blend-mode:multiply" opacity="0.75">
<path d="M22.228 17.9495C19.6871 15.4086 18.4167 14.1382 17.8021 12.7343C16.8924 10.6564 16.8924 8.29304 17.8021 6.21523C18.4167 4.81129 19.6871 3.54086 22.228 1C24.7688 3.54086 26.0393 4.81129 26.6539 6.21523C27.5635 8.29304 27.5635 10.6564 26.6539 12.7343C26.0393 14.1382 24.7688 15.4086 22.228 17.9495Z" fill="#9E00FF"/>
<path d="M25.6739 19.9594C26.6039 16.4885 27.0689 14.7531 27.9774 13.5188C29.322 11.6921 31.3688 10.5104 33.6231 10.2593C35.1462 10.0896 36.8817 10.5546 40.3525 11.4846C39.4225 14.9555 38.9575 16.6909 38.049 17.9252C36.7044 19.7519 34.6576 20.9336 32.4033 21.1847C30.8802 21.3544 29.1447 20.8894 25.6739 19.9594Z" fill="#9E00FF"/>
<path d="M26.2396 23.0608C29.7645 22.363 31.527 22.0142 33.0355 22.2845C35.2681 22.6846 37.232 23.9995 38.4525 25.9113C39.2772 27.2031 39.626 28.9656 40.3238 32.4905C36.7989 33.1883 35.0364 33.5371 33.5279 33.2668C31.2952 32.8667 29.3313 31.5518 28.1109 29.64C27.2862 28.3482 26.9373 26.5857 26.2396 23.0608Z" fill="#9E00FF"/>
<path d="M22.228 26.1281C24.7688 28.669 26.0393 29.9394 26.6539 31.3434C27.5635 33.4212 27.5635 35.7846 26.6539 37.8624C26.0393 39.2663 24.7688 40.5368 22.228 43.0776C19.6871 40.5368 18.4167 39.2663 17.8021 37.8624C16.8924 35.7846 16.8924 33.4212 17.8021 31.3434C18.4167 29.9394 19.6871 28.669 22.228 26.1281Z" fill="#9E00FF"/>
<path d="M18.6657 23.9924C17.7463 27.4661 17.2866 29.203 16.3818 30.44C15.0428 32.2708 12.9996 33.4587 10.7462 33.7167C9.22353 33.8911 7.48668 33.4314 4.01298 32.512C4.93239 29.0383 5.39209 27.3014 6.29685 26.0644C7.63589 24.2336 9.67903 23.0457 11.9325 22.7877C13.4551 22.6133 15.192 23.073 18.6657 23.9924Z" fill="#9E00FF"/>
<path d="M18.3723 20.5352C14.8709 21.3429 13.1203 21.7467 11.604 21.5237C9.35993 21.1936 7.35589 19.9408 6.07618 18.0681C5.21151 16.8027 4.80767 15.052 4 11.5507C7.50137 10.743 9.25205 10.3392 10.7683 10.5622C13.0124 10.8923 15.0164 12.145 16.2961 14.0178C17.1608 15.2831 17.5646 17.0338 18.3723 20.5352Z" fill="#9E00FF"/>
</g>
<g style="mix-blend-mode:multiply">
<path d="M25.0986 16.769C23.2529 17.2636 22.1576 19.1607 22.6521 21.0064C24.4978 20.5119 25.5931 18.6147 25.0986 16.769Z" fill="#FF0000"/>
<path d="M28.1162 22.0067C26.7651 20.6556 24.5744 20.6556 23.2233 22.0067C24.5744 23.3578 26.7651 23.3578 28.1162 22.0067Z" fill="#FF0000"/>
<path d="M25.0771 27.2531C25.693 25.4443 24.726 23.4787 22.9171 22.8628C22.3013 24.6716 23.2683 26.6373 25.0771 27.2531Z" fill="#FF0000"/>
<path d="M19.0249 27.2883C20.8706 26.7938 21.9659 24.8966 21.4713 23.0509C19.6256 23.5455 18.5303 25.4426 19.0249 27.2883Z" fill="#FF0000"/>
<path d="M15.9961 22.0177C17.3514 23.3647 19.542 23.358 20.889 22.0027C19.5337 20.6557 17.3431 20.6624 15.9961 22.0177Z" fill="#FF0000"/>
<path d="M19.0187 16.776C18.4597 18.6032 19.4878 20.5376 21.315 21.0966C21.874 19.2694 20.8459 17.335 19.0187 16.776Z" fill="#FF0000"/>
</g>
</svg>
