<svg width="44" height="44" viewBox="0 0 44 44" fill="none" xmlns="http://www.w3.org/2000/svg">
<g style="mix-blend-mode:multiply" opacity="0.75">
<path d="M23.8218 31.7152L20.0279 38.2863L12.4402 38.2863L8.64631 31.7152L12.4402 25.144L20.0279 25.144L23.8218 31.7152Z" fill="#863DFC"/>
</g>
<g style="mix-blend-mode:multiply" opacity="0.75">
<path d="M34.7471 31.7152L30.9532 38.2863L23.3655 38.2863L19.5716 31.7152L23.3655 25.144L30.9532 25.144L34.7471 31.7152Z" fill="#863DFC"/>
</g>
<g style="mix-blend-mode:multiply" opacity="0.75">
<path d="M41 21.7611L37.2061 28.3322L29.6184 28.3322L25.8245 21.7611L29.6184 15.1899L37.2061 15.1899L41 21.7611Z" fill="#863DFC"/>
</g>
<g style="mix-blend-mode:multiply" opacity="0.75">
<path d="M18.1758 21.7611L14.3819 28.3322L6.79418 28.3322L3.00031 21.7611L6.79418 15.1899L14.3819 15.1899L18.1758 21.7611Z" fill="#863DFC"/>
</g>
<g style="mix-blend-mode:multiply" opacity="0.75">
<path d="M23.8218 11.8661L20.0279 18.4372L12.4402 18.4372L8.64631 11.8661L12.4402 5.29488L20.0279 5.29488L23.8218 11.8661Z" fill="#863DFC"/>
</g>
<g style="mix-blend-mode:multiply" opacity="0.75">
<path d="M35.2324 11.8661L31.4386 18.4372L23.8508 18.4372L20.057 11.8661L23.8508 5.29488L31.4386 5.29488L35.2324 11.8661Z" fill="#863DFC"/>
</g>
<path opacity="0.75" d="M29.5874 21.7611L25.7935 28.3322L18.2058 28.3322L14.4119 21.7611L18.2058 15.1899L25.7935 15.1899L29.5874 21.7611Z" fill="#FF0000"/>
<g style="mix-blend-mode:multiply" opacity="0.75">
<path d="M41 15.1434L37.2061 21.7146L29.6184 21.7146L25.8245 15.1434L29.6184 8.57223L37.2061 8.57223L41 15.1434Z" fill="#863DFC"/>
</g>
<g style="mix-blend-mode:multiply" opacity="0.75">
<path d="M29.5874 8.58773L25.7935 15.1589L18.2058 15.1589L14.4119 8.58773L18.2058 2.01656L25.7935 2.01656L29.5874 8.58773Z" fill="#863DFC"/>
</g>
<g style="mix-blend-mode:multiply" opacity="0.75">
<path d="M18.1758 15.1434L14.3819 21.7146L6.79418 21.7146L3.00031 15.1434L6.79418 8.57223L14.3819 8.57223L18.1758 15.1434Z" fill="#863DFC"/>
</g>
<g style="mix-blend-mode:multiply" opacity="0.75">
<path d="M18.1758 28.3158L14.3819 34.8869L6.79418 34.8869L3.00031 28.3158L6.79418 21.7446L14.3819 21.7446L18.1758 28.3158Z" fill="#863DFC"/>
</g>
<g style="mix-blend-mode:multiply" opacity="0.75">
<path d="M29.5874 34.9315L25.7935 41.5027L18.2058 41.5027L14.4119 34.9315L18.2058 28.3603L25.7935 28.3603L29.5874 34.9315Z" fill="#863DFC"/>
</g>
<g style="mix-blend-mode:multiply" opacity="0.75">
<path d="M41 28.3158L37.2061 34.8869L29.6184 34.8869L25.8245 28.3158L29.6184 21.7446L37.2061 21.7446L41 28.3158Z" fill="#863DFC"/>
</g>
</svg>
