<svg width="44" height="44" viewBox="0 0 44 44" fill="none" xmlns="http://www.w3.org/2000/svg">
<path d="M13.8128 39.7357C15.9964 40.9862 18.7928 40.237 20.0586 38.0622V38.0622L16.0086 35.7428C13.8249 34.4923 11.0285 35.2415 9.76267 37.4163V37.4163L13.8128 39.7357Z" fill="#FFA800"/>
<path d="M16.4158 35.0441C14.2321 33.7935 13.4881 31.0168 14.754 28.842V28.842L18.804 31.1614C20.9877 32.4119 21.7317 35.1887 20.4658 37.3635V37.3635L16.4158 35.0441Z" fill="#FFA800"/>
<path d="M5.51539 32.0699C7.30559 33.8457 10.2081 33.8457 11.9983 32.0699V32.0699L8.70455 28.8029C6.91435 27.0271 4.01186 27.0271 2.22165 28.8029V28.8029L5.51539 32.0699Z" fill="#FFA800"/>
<path d="M9.27953 28.2318C7.48933 26.4561 7.48933 23.5771 9.27953 21.8014V21.8014L12.5733 25.0685C14.3635 26.8442 14.3635 29.7232 12.5733 31.4989V31.4989L9.27953 28.2318Z" fill="#FFA800"/>
<path d="M2 17.3646C2 19.8964 4.05237 21.9487 6.5841 21.9487V21.9487V17.3655C6.5841 14.8338 4.53173 12.7814 2 12.7814V12.7814L2 17.3646Z" fill="#FFD600"/>
<path d="M7.39746 17.3654C7.39746 14.8336 9.44983 12.7812 11.9816 12.7812V12.7812L11.9816 17.3645C11.9816 19.8962 9.92919 21.9486 7.39746 21.9486V21.9486L7.39746 17.3654Z" fill="#FFD600"/>
<path d="M32.0186 17.3646C32.0186 19.8964 34.0709 21.9487 36.6027 21.9487V21.9487V17.3655C36.6027 14.8338 34.5503 12.7814 32.0186 12.7814V12.7814V17.3646Z" fill="#FFD600"/>
<path d="M37.416 17.3654C37.416 14.8336 39.4684 12.7812 42.0001 12.7812V12.7812V17.3645C42.0001 19.8962 39.9477 21.9486 37.416 21.9486V21.9486L37.416 17.3654Z" fill="#FFD600"/>
<path d="M26.2351 12.8934C28.4188 14.144 31.2152 13.3947 32.481 11.2199V11.2199L28.4309 8.9005C26.2473 7.64997 23.4509 8.39924 22.185 10.574V10.574L26.2351 12.8934Z" fill="#FFA800"/>
<path d="M28.8372 8.20276C26.6535 6.95223 25.9095 4.17545 27.1753 2.00065V2.00065L31.2254 4.32005C33.4091 5.57058 34.1531 8.34736 32.8872 10.5222V10.5222L28.8372 8.20276Z" fill="#FFA800"/>
<path d="M12.6086 4.3197C10.425 5.57023 9.68097 8.34701 10.9468 10.5218V10.5218L14.9969 8.20242C17.1806 6.95188 17.9246 4.1751 16.6587 2.0003V2.0003L12.6086 4.3197Z" fill="#FFA800"/>
<path d="M15.4036 8.90101C17.5872 7.65047 20.3836 8.39974 21.6495 10.5745V10.5745L17.5994 12.8939C15.4157 14.1445 12.6194 13.3952 11.3535 11.2204V11.2204L15.4036 8.90101Z" fill="#FFA800"/>
<path d="M25.3997 31.0878C23.216 32.3383 22.472 35.1151 23.7378 37.2899V37.2899L27.7879 34.9705C29.9716 33.72 30.7156 30.9432 29.4497 28.7684V28.7684L25.3997 31.0878Z" fill="#FFA800"/>
<path d="M28.1941 35.6696C30.3777 34.419 33.1741 35.1683 34.44 37.3431V37.3431L30.3899 39.6625C28.2063 40.913 25.4099 40.1638 24.144 37.989V37.989L28.1941 35.6696Z" fill="#FFA800"/>
<path d="M31.6365 25.0685C29.8463 26.8442 29.8463 29.7232 31.6365 31.4989V31.4989L34.9302 28.2318C36.7204 26.4561 36.7204 23.5771 34.9302 21.8014V21.8014L31.6365 25.0685Z" fill="#FFA800"/>
<path d="M35.5051 28.8016C37.2953 27.0259 40.1978 27.0259 41.988 28.8016V28.8016L38.6943 32.0687C36.9041 33.8444 34.0016 33.8444 32.2114 32.0687V32.0687L35.5051 28.8016Z" fill="#FFA800"/>
</svg>
