<svg width="44" height="44" viewBox="0 0 44 44" fill="none" xmlns="http://www.w3.org/2000/svg">
<g style="mix-blend-mode:multiply" opacity="0.75">
<g style="mix-blend-mode:hard-light">
<path d="M21.5124 -1.39856e-07C25.8259 8.55269 25.7307 13.3856 21.5124 22.0696C17.4328 13.7108 17.3637 8.87696 21.5124 -1.39856e-07Z" fill="#FFD600"/>
</g>
<g style="mix-blend-mode:hard-light">
<path d="M21.5124 21.6411C25.8259 30.1938 25.7307 35.0267 21.5124 43.7107C17.4328 35.3519 17.3637 30.5181 21.5124 21.6411Z" fill="#FFD600"/>
</g>
<g style="mix-blend-mode:hard-light">
<path d="M40.4696 11.1007C35.2195 19.1127 30.9865 21.4466 21.3567 22.1355C26.5559 14.4231 30.7075 11.9463 40.4696 11.1007Z" fill="#FFD600"/>
</g>
<g style="mix-blend-mode:hard-light">
<path d="M21.7284 21.9205C16.4783 29.9325 12.2453 32.2665 2.61552 32.9553C7.81466 25.2429 11.9663 22.7661 21.7284 21.9205Z" fill="#FFD600"/>
</g>
<g style="mix-blend-mode:hard-light">
<path d="M40.4543 32.9557C30.8907 32.415 26.7529 29.9161 21.3414 21.9209C30.6201 22.5673 34.8409 24.9243 40.4543 32.9557Z" fill="#FFD600"/>
</g>
<g style="mix-blend-mode:hard-light">
<path d="M21.7126 22.1344C12.149 21.5937 8.01117 19.0948 2.59971 11.0996C11.8784 11.746 16.0992 14.103 21.7126 22.1344Z" fill="#FFD600"/>
</g>
</g>
<g style="mix-blend-mode:multiply" opacity="0.75">
<g style="mix-blend-mode:hard-light">
<path d="M26.5027 12.437C26.4264 17.1096 25.2894 19.1756 21.4979 21.9701C21.6313 17.4344 22.6976 15.3307 26.5027 12.437Z" fill="#FFA800"/>
</g>
<g style="mix-blend-mode:hard-light">
<path d="M21.595 21.7852C21.5187 26.4577 20.3816 28.5237 16.5902 31.3183C16.7236 26.7825 17.7899 24.6788 21.595 21.7852Z" fill="#FFA800"/>
</g>
<g style="mix-blend-mode:hard-light">
<path d="M32.1732 21.5307C28.0885 23.8009 25.7307 23.8491 21.4149 21.9629C25.4096 19.8105 27.7646 19.6822 32.1732 21.5307Z" fill="#FFA800"/>
</g>
<g style="mix-blend-mode:hard-light">
<path d="M21.6229 21.955C17.5382 24.2252 15.1804 24.2735 10.8646 22.3873C14.8593 20.2349 17.2144 20.1065 21.6229 21.955Z" fill="#FFA800"/>
</g>
<g style="mix-blend-mode:hard-light">
<path d="M27.2105 30.9681C23.2021 28.5658 21.9814 26.5481 21.457 21.8673C25.3184 24.2507 26.6071 26.226 27.2105 30.9681Z" fill="#FFA800"/>
</g>
<g style="mix-blend-mode:hard-light">
<path d="M21.5684 22.0433C17.56 19.641 16.3393 17.6233 15.8149 12.9425C19.6763 15.3259 20.965 17.3012 21.5684 22.0433Z" fill="#FFA800"/>
</g>
</g>
<g style="mix-blend-mode:multiply" opacity="0.75">
<g style="mix-blend-mode:hard-light">
<path d="M37.5117 21.8515C31.2529 25.0081 27.7162 24.9384 21.3613 21.8515C27.4782 18.8661 31.0156 18.8155 37.5117 21.8515Z" fill="#FFA800"/>
</g>
<g style="mix-blend-mode:hard-light">
<path d="M21.6753 21.8515C15.4165 25.0081 11.8798 24.9384 5.52487 21.8515C11.6418 18.8661 15.1792 18.8155 21.6753 21.8515Z" fill="#FFA800"/>
</g>
<g style="mix-blend-mode:hard-light">
<path d="M29.3905 35.7238C23.5274 31.8818 21.8194 28.7842 21.3153 21.7372C26.9592 25.5419 28.7717 28.58 29.3905 35.7238Z" fill="#FFA800"/>
</g>
<g style="mix-blend-mode:hard-light">
<path d="M21.4725 22.008C15.6094 18.166 13.9014 15.0683 13.3973 8.02133C19.0412 11.826 20.8537 14.8642 21.4725 22.008Z" fill="#FFA800"/>
</g>
<g style="mix-blend-mode:hard-light">
<path d="M13.3954 35.7132C13.7911 28.7146 15.6198 25.6866 21.4706 21.7265C20.9976 28.5166 19.2727 31.6054 13.3954 35.7132Z" fill="#FFA800"/>
</g>
<g style="mix-blend-mode:hard-light">
<path d="M21.3143 21.9983C21.71 14.9997 23.5387 11.9717 29.3895 8.01166C28.9165 14.8018 27.1916 17.8905 21.3143 21.9983Z" fill="#FFA800"/>
</g>
</g>
</svg>
