<svg width="33" height="34" viewBox="0 0 33 34" fill="none" xmlns="http://www.w3.org/2000/svg">
<path d="M16.5002 32C24.7845 32 31.5002 25.2843 31.5002 17C31.5002 8.71573 24.7845 2 16.5002 2C8.21597 2 1.50024 8.71573 1.50024 17C1.50024 25.2843 8.21597 32 16.5002 32Z" stroke="black" stroke-width="3" stroke-linecap="round"/>
<path d="M10.5002 12.575V12.425M22.5002 12.575V12.425" stroke="black" stroke-width="3" stroke-linecap="round"/>
<path d="M16.5002 26C18.0915 26 19.6177 25.3679 20.7429 24.2426C21.8681 23.1174 22.5002 21.5913 22.5002 20H10.5002C10.5002 21.5913 11.1324 23.1174 12.2576 24.2426C13.3828 25.3679 14.9089 26 16.5002 26Z" stroke="black" stroke-width="3" stroke-linecap="round" stroke-linejoin="round"/>
</svg>
