<svg width="33" height="34" viewBox="0 0 33 34" fill="none" xmlns="http://www.w3.org/2000/svg">
<path d="M16.5 32C24.7843 32 31.5 25.2843 31.5 17C31.5 8.71573 24.7843 2 16.5 2C8.21573 2 1.5 8.71573 1.5 17C1.5 25.2843 8.21573 32 16.5 32Z" stroke="black" stroke-width="3" stroke-linecap="round"/>
<path d="M10.5 12.575V12.425M22.5 12.575V12.425" stroke="black" stroke-width="3" stroke-linecap="round"/>
<path d="M16.5 18.5C18.0913 18.5 19.6174 19.1321 20.7426 20.2574C21.8679 21.3826 22.5 22.9087 22.5 24.5H10.5C10.5 22.9087 11.1321 21.3826 12.2574 20.2574C13.3826 19.1321 14.9087 18.5 16.5 18.5Z" stroke="black" stroke-width="3" stroke-linecap="round" stroke-linejoin="round"/>
</svg>
