<svg width="26" height="26" viewBox="0 0 26 26" fill="none" xmlns="http://www.w3.org/2000/svg">
<path d="M5.2998 4.2C5.2998 3.61652 5.53159 3.05695 5.94417 2.64436C6.35675 2.23178 6.91633 2 7.4998 2H18.4998C19.0833 2 19.6429 2.23178 20.0554 2.64436C20.468 3.05695 20.6998 3.61652 20.6998 4.2V9.7C20.6998 11.7422 19.8886 13.7007 18.4445 15.1447C17.0005 16.5888 15.042 17.4 12.9998 17.4C10.9576 17.4 8.99911 16.5888 7.55508 15.1447C6.11105 13.7007 5.2998 11.7422 5.2998 9.7V4.2ZM9.6998 24H16.2998L12.9998 18.5L9.6998 24Z" stroke="#EB7CBF" stroke-width="3" stroke-linecap="round" stroke-linejoin="round"/>
<path d="M5.3 4.2002H4.2C3.61652 4.2002 3.05695 4.43198 2.64436 4.84456C2.23178 5.25714 2 5.81672 2 6.4002V7.7631C1.99998 8.56277 2.2179 9.34734 2.63033 10.0325C3.04276 10.7176 3.6341 11.2773 4.3408 11.6516L5.85 12.4502M20.7 4.2002H21.8C22.3835 4.2002 22.9431 4.43198 23.3556 4.84456C23.7682 5.25714 24 5.81672 24 6.4002V7.1009C24.0001 8.10054 23.7277 9.0813 23.2122 9.93776C22.6966 10.7942 21.9574 11.494 21.074 11.9618L20.15 12.4502" stroke="#EB7CBF" stroke-width="3" stroke-linejoin="round"/>
</svg>
