<svg width="26" height="26" viewBox="0 0 26 26" fill="none" xmlns="http://www.w3.org/2000/svg">
<path d="M8.56089 4.18767L5.21689 3.07178C4.84941 2.94939 4.4581 2.91607 4.07522 2.97457C3.69234 3.03308 3.32884 3.18173 3.01468 3.40828C2.70051 3.63483 2.44469 3.93279 2.26827 4.27761C2.09186 4.62243 1.99991 5.00423 2 5.39156V19.793C1.99988 20.3063 2.16131 20.8065 2.46141 21.2229C2.76151 21.6393 3.18505 21.9506 3.672 22.1128L8.56089 23.742C9.06231 23.909 9.60436 23.909 10.1058 23.742L15.8942 21.8133C16.396 21.6461 16.9385 21.6461 17.4403 21.8133L20.7831 22.928C21.1506 23.0504 21.5419 23.0837 21.9248 23.0252C22.3077 22.9667 22.6712 22.8181 22.9853 22.5915C23.2995 22.365 23.5553 22.067 23.7317 21.7222C23.9081 21.3774 24.0001 20.9956 24 20.6082V6.20678C24.0002 5.69369 23.839 5.19353 23.5391 4.77718C23.2392 4.36083 22.8159 4.0494 22.3292 3.88701L17.4403 2.25778C16.9385 2.0905 16.396 2.0905 15.8942 2.25778L10.1046 4.18645C9.60313 4.35346 9.06109 4.35346 8.55967 4.18645" stroke="#79AAD8" stroke-width="3" stroke-linecap="round" stroke-linejoin="round"/>
<path d="M9.3335 4.44444V24M16.6668 2V21.5556" stroke="#79AAD8" stroke-width="3" stroke-linejoin="round"/>
</svg>
