<svg width="26" height="24" viewBox="0 0 26 24" fill="none" xmlns="http://www.w3.org/2000/svg">
<path d="M5.14286 1.52393L5.34191 2.50869C5.48455 3.21584 5.80733 3.87419 6.27901 4.42001C6.75069 4.96584 7.35529 5.38065 8.03429 5.62431L8.28571 5.7144L8.03429 5.8045C7.35529 6.04815 6.75069 6.46297 6.27901 7.00879C5.80733 7.55462 5.48455 8.21297 5.34191 8.92012L5.14286 9.90488L4.94381 8.92012C4.80117 8.21297 4.47838 7.55462 4.0067 7.00879C3.53503 6.46297 2.93043 6.04815 2.25143 5.8045L2 5.7144L2.25143 5.62431C2.93043 5.38065 3.53503 4.96584 4.0067 4.42001C4.47838 3.87419 4.80117 3.21584 4.94381 2.50869L5.14286 1.52393ZM8.28571 16.1906L8.52667 17.5274C8.58923 17.876 8.73919 18.2032 8.96253 18.4782C9.18586 18.7532 9.47527 18.9671 9.80372 19.0998L10.381 19.3335L9.80372 19.5671C9.47521 19.6996 9.18567 19.9133 8.96215 20.1881C8.73864 20.4629 8.58845 20.7899 8.52562 21.1385L8.28571 22.4763L8.04476 21.1395C7.98219 20.7909 7.83224 20.4637 7.6089 20.1887C7.38557 19.9137 7.09616 19.6998 6.76771 19.5671L6.19048 19.3335L6.76771 19.0998C7.09622 18.9673 7.38576 18.7536 7.60927 18.4788C7.83279 18.204 7.98298 17.877 8.04581 17.5284L8.28571 16.1906ZM16.6667 2.57154L17.2491 5.35193C17.546 6.76944 18.2051 8.08584 19.1622 9.17277C20.1194 10.2597 21.3418 11.08 22.7104 11.5538L24 12.0001L22.7104 12.4464C21.3418 12.9202 20.1194 13.7405 19.1622 14.8275C18.2051 15.9144 17.546 17.2308 17.2491 18.6483L16.6667 21.4287L16.0842 18.6483C15.7873 17.2308 15.1282 15.9144 14.1711 14.8275C13.214 13.7405 11.9915 12.9202 10.623 12.4464L9.33333 12.0001L10.623 11.5538C11.9915 11.08 13.214 10.2597 14.1711 9.17277C15.1282 8.08584 15.7873 6.76944 16.0842 5.35193L16.6667 2.57154Z" stroke="#FFB26B" stroke-width="3" stroke-linecap="round" stroke-linejoin="round"/>
</svg>
