<svg width="26" height="26" viewBox="0 0 26 26" fill="none" xmlns="http://www.w3.org/2000/svg">
<path d="M2 6.4C2 5.23305 2.46357 4.11389 3.28873 3.28873C4.11389 2.46357 5.23305 2 6.4 2H19.6C20.767 2 21.8861 2.46357 22.7113 3.28873C23.5364 4.11389 24 5.23305 24 6.4V19.6C24 20.767 23.5364 21.8861 22.7113 22.7113C21.8861 23.5364 20.767 24 19.6 24H6.4C5.23305 24 4.11389 23.5364 3.28873 22.7113C2.46357 21.8861 2 20.767 2 19.6V6.4Z" stroke="#5D5BA3" stroke-width="3" stroke-linecap="round" stroke-linejoin="round"/>
<path d="M9.1499 11.8999C10.6687 11.8999 11.8999 10.6687 11.8999 9.1499C11.8999 7.63112 10.6687 6.3999 9.1499 6.3999C7.63112 6.3999 6.3999 7.63112 6.3999 9.1499C6.3999 10.6687 7.63112 11.8999 9.1499 11.8999Z" stroke="#5D5BA3" stroke-width="3" stroke-linecap="round" stroke-linejoin="round"/>
<path d="M15.7785 13.6833L6.3999 24.0002H19.7462C20.8744 24.0002 21.9563 23.5521 22.754 22.7543C23.5517 21.9566 23.9999 20.8747 23.9999 19.7465V19.6002C23.9999 19.0876 23.8074 18.8907 23.4609 18.5112L19.0279 13.6767C18.8213 13.4514 18.57 13.2715 18.29 13.1487C18.01 13.0259 17.7075 12.9628 17.4017 12.9634C17.096 12.964 16.7937 13.0283 16.5143 13.1523C16.2348 13.2763 15.9842 13.4571 15.7785 13.6833Z" stroke="#5D5BA3" stroke-width="3" stroke-linecap="round" stroke-linejoin="round"/>
</svg>
