<svg width="26" height="28" viewBox="0 0 26 28" fill="none" xmlns="http://www.w3.org/2000/svg">
<path d="M13 26.2223C6.92556 26.2223 2 23.0665 2 17.6667V17.5592C2 14.9705 3.63533 12.9001 6.125 11.5556C8.50711 10.2698 9.91511 7.90117 9.56311 5.4445L8.875 1.77783L11.4246 2.7495C16.0164 4.49728 19.8408 7.53083 22.3194 11.3857C23.4093 13.0603 23.9928 15.0137 24 17.0116V17.6667C24 19.5758 23.384 21.2051 22.3194 22.5128" stroke="#79AAD8" stroke-width="3" stroke-linecap="round" stroke-linejoin="round"/>
<path d="M13.0002 26.2221C10.9749 26.2221 9.3335 24.4707 9.3335 22.311C9.3335 20.5999 10.5753 19.2298 11.6679 17.9746L13.0002 16.4443L14.3324 17.9746C15.4251 19.231 16.6668 20.5999 16.6668 22.311C16.6668 24.4707 15.0254 26.2221 13.0002 26.2221Z" stroke="#79AAD8" stroke-width="3" stroke-linecap="round" stroke-linejoin="round"/>
</svg>
