<svg width="27" height="30" viewBox="0 0 27 30" fill="none" xmlns="http://www.w3.org/2000/svg">
<path d="M18.3176 4.51709H21.8649C22.6175 4.51709 23.3393 4.81161 23.8715 5.33586C24.4037 5.86011 24.7027 6.57114 24.7027 7.31254V25.483C24.7027 26.2244 24.4037 26.9354 23.8715 27.4597C23.3393 27.9839 22.6175 28.2784 21.8649 28.2784H4.83784C4.0852 28.2784 3.36338 27.9839 2.83118 27.4597C2.29899 26.9354 2 26.2244 2 25.483V7.31254C2 6.57114 2.29899 5.86011 2.83118 5.33586C3.36338 4.81161 4.0852 4.51709 4.83784 4.51709H8.38514" stroke="#EB7CBF" stroke-width="3" stroke-linecap="round" stroke-linejoin="round"/>
<path d="M8.55693 3.83923C8.71039 3.23447 9.06465 2.69758 9.56341 2.3139C10.0622 1.93023 10.6768 1.72177 11.3096 1.72168H15.3919C16.0247 1.72177 16.6393 1.93023 17.1381 2.3139C17.6368 2.69758 17.9911 3.23447 18.1446 3.83923L19.0271 7.31258H7.67578L8.55693 3.83923Z" stroke="#EB7CBF" stroke-width="3" stroke-linecap="round" stroke-linejoin="round"/>
<path d="M9.09473 15.6987H17.6082M9.09473 21.2896H17.6082" stroke="#EB7CBF" stroke-width="3" stroke-linecap="round"/>
</svg>
