<svg width="26" height="26" viewBox="0 0 26 26" fill="none" xmlns="http://www.w3.org/2000/svg">
<path d="M21.5556 24H6.88889C5.59227 24 4.34877 23.4849 3.43192 22.5681C2.51508 21.6512 2 20.4077 2 19.1111V4.44444C2 3.79614 2.25754 3.17438 2.71596 2.71596C3.17438 2.25754 3.79614 2 4.44444 2H16.6667C17.315 2 17.9367 2.25754 18.3951 2.71596C18.8536 3.17438 19.1111 3.79614 19.1111 4.44444V20.3333C19.1111 22.3586 19.5303 24 21.5556 24Z" stroke="#EB7CBF" stroke-width="3" stroke-linecap="round" stroke-linejoin="round"/>
<path d="M24.0002 10.5558C24.0002 9.90747 23.7427 9.28571 23.2843 8.82729C22.8258 8.36887 22.2041 8.11133 21.5558 8.11133H19.1113V20.9447C19.1113 22.6313 19.8691 24.0002 21.5558 24.0002C23.2424 24.0002 24.0002 22.6313 24.0002 20.9447V10.5558Z" stroke="#EB7CBF" stroke-width="3" stroke-linecap="round" stroke-linejoin="round"/>
<path d="M14.222 11.7776H6.88867M14.222 6.88867H6.88867M10.5553 16.6664H6.88867" stroke="#EB7CBF" stroke-width="3" stroke-linecap="round"/>
</svg>
