<svg width="22" height="22" viewBox="0 0 22 22" fill="none" xmlns="http://www.w3.org/2000/svg">
<path d="M2 7H9C9.59334 7 10.1734 6.82405 10.6667 6.49441C11.1601 6.16477 11.5446 5.69623 11.7716 5.14805C11.9987 4.59987 12.0581 3.99667 11.9424 3.41473C11.8266 2.83279 11.5409 2.29824 11.1213 1.87868C10.7018 1.45912 10.1672 1.1734 9.58527 1.05765C9.00333 0.94189 8.40013 1.0013 7.85195 1.22836C7.30377 1.45543 6.83524 1.83994 6.50559 2.33329C6.17595 2.82664 6 3.40666 6 4M3 15H14C14.5933 15 15.1734 15.1759 15.6667 15.5056C16.1601 15.8352 16.5446 16.3038 16.7716 16.852C16.9987 17.4001 17.0581 18.0033 16.9424 18.5853C16.8266 19.1672 16.5409 19.7018 16.1213 20.1213C15.7018 20.5409 15.1672 20.8266 14.5853 20.9424C14.0033 21.0581 13.4001 20.9987 12.8519 20.7716C12.3038 20.5446 11.8352 20.1601 11.5056 19.6667C11.1759 19.1734 11 18.5933 11 18M1 11H18C18.5933 11 19.1734 10.8241 19.6667 10.4944C20.1601 10.1648 20.5446 9.69623 20.7716 9.14805C20.9987 8.59987 21.0581 7.99667 20.9424 7.41473C20.8266 6.83279 20.5409 6.29824 20.1213 5.87868C19.7018 5.45912 19.1672 5.1734 18.5853 5.05765C18.0033 4.94189 17.4001 5.0013 16.8519 5.22836C16.3038 5.45543 15.8352 5.83994 15.5056 6.33329C15.1759 6.82664 15 7.40666 15 8" stroke="#F2EBFF" stroke-width="2" stroke-linecap="round" stroke-linejoin="round"/>
</svg>
