<svg width="26" height="26" viewBox="0 0 26 26" fill="none" xmlns="http://www.w3.org/2000/svg">
<path d="M3.1 8.6H10.8C11.4527 8.6 12.0907 8.40646 12.6334 8.04385C13.1761 7.68124 13.599 7.16585 13.8488 6.56286C14.0986 5.95986 14.1639 5.29634 14.0366 4.6562C13.9093 4.01607 13.595 3.42806 13.1335 2.96655C12.6719 2.50504 12.0839 2.19074 11.4438 2.06341C10.8037 1.93608 10.1401 2.00143 9.53714 2.2512C8.93415 2.50097 8.41876 2.92394 8.05615 3.46662C7.69354 4.0093 7.5 4.64732 7.5 5.3M4.2 17.4H16.3C16.9527 17.4 17.5907 17.5935 18.1334 17.9561C18.6761 18.3188 19.099 18.8341 19.3488 19.4371C19.5986 20.0401 19.6639 20.7037 19.5366 21.3438C19.4093 21.9839 19.095 22.5719 18.6334 23.0335C18.1719 23.495 17.5839 23.8093 16.9438 23.9366C16.3037 24.0639 15.6401 23.9986 15.0371 23.7488C14.4341 23.499 13.9188 23.0761 13.5561 22.5334C13.1935 21.9907 13 21.3527 13 20.7M2 13H20.7C21.3527 13 21.9907 12.8065 22.5334 12.4438C23.0761 12.0812 23.499 11.5659 23.7488 10.9629C23.9986 10.3599 24.0639 9.69634 23.9366 9.0562C23.8093 8.41607 23.495 7.82806 23.0334 7.36655C22.5719 6.90504 21.9839 6.59074 21.3438 6.46341C20.7037 6.33608 20.0401 6.40143 19.4371 6.6512C18.8341 6.90097 18.3188 7.32394 17.9561 7.86662C17.5935 8.4093 17.4 9.04732 17.4 9.7" stroke="#F2EBFF" stroke-width="3" stroke-linecap="round" stroke-linejoin="round"/>
</svg>
