<svg width="100" height="100" viewBox="0 0 100 100" fill="none" xmlns="http://www.w3.org/2000/svg">
<path opacity="0.5" d="M91.6666 50.0002C91.6666 73.0118 73.0116 91.6668 50 91.6668C26.9881 91.6668 8.33331 73.0118 8.33331 50.0002C8.33331 26.9883 26.9881 8.3335 50 8.3335C73.0116 8.3335 91.6666 26.9883 91.6666 50.0002Z" fill="#1C274C"/>
<path d="M33.6505 35.9057C33.3333 36.6714 33.3333 37.6421 33.3333 39.5835V60.4168C33.3333 62.3581 33.3333 63.3289 33.6505 64.0947C34.0734 65.1156 34.8846 65.9268 35.9055 66.3497C36.6712 66.6668 37.6419 66.6668 39.5833 66.6668C41.5248 66.6668 42.4954 66.6668 43.2613 66.3497C44.2821 65.9268 45.0933 65.1156 45.5163 64.0947C45.8333 63.3289 45.8333 62.3581 45.8333 60.4168V39.5835C45.8333 37.6421 45.8333 36.6714 45.5163 35.9057C45.0933 34.8847 44.2821 34.0735 43.2613 33.6507C42.4954 33.3335 41.5248 33.3335 39.5833 33.3335C37.6419 33.3335 36.6712 33.3335 35.9055 33.6507C34.8846 34.0735 34.0734 34.8847 33.6505 35.9057Z" fill="#1C274C"/>
<path d="M54.4837 35.9057C54.1667 36.6714 54.1667 37.6421 54.1667 39.5835V60.4168C54.1667 62.3581 54.1667 63.3289 54.4837 64.0947C54.9067 65.1156 55.7179 65.9268 56.7387 66.3497C57.5046 66.6668 58.4754 66.6668 60.4167 66.6668C62.3579 66.6668 63.3287 66.6668 64.0946 66.3497C65.1154 65.9268 65.9267 65.1156 66.3496 64.0947C66.6667 63.3289 66.6667 62.3581 66.6667 60.4168V39.5835C66.6667 37.6421 66.6667 36.6714 66.3496 35.9057C65.9267 34.8847 65.1154 34.0735 64.0946 33.6507C63.3287 33.3335 62.3579 33.3335 60.4167 33.3335C58.4754 33.3335 57.5046 33.3335 56.7387 33.6507C55.7179 34.0735 54.9067 34.8847 54.4837 35.9057Z" fill="#1C274C"/>
</svg>
