<svg width="100" height="100" viewBox="0 0 100 100" fill="none" xmlns="http://www.w3.org/2000/svg">
<path opacity="0.5" d="M91.6667 50.0002C91.6667 73.0118 73.0117 91.6668 50 91.6668C26.9881 91.6668 8.33331 73.0118 8.33331 50.0002C8.33331 26.9883 26.9881 8.3335 50 8.3335C73.0117 8.3335 91.6667 26.9883 91.6667 50.0002Z" fill="#1C274C"/>
<path d="M35.7741 35.7743C33.3333 38.215 33.3333 42.1435 33.3333 50.0002C33.3333 57.8568 33.3333 61.7852 35.7741 64.226C38.2149 66.6668 42.1433 66.6668 50 66.6668C57.8566 66.6668 61.785 66.6668 64.2258 64.226C66.6666 61.7852 66.6666 57.8568 66.6666 50.0002C66.6666 42.1435 66.6666 38.215 64.2258 35.7743C61.785 33.3335 57.8566 33.3335 50 33.3335C42.1433 33.3335 38.2149 33.3335 35.7741 35.7743Z" fill="#1C274C"/>
</svg>
