<svg width="100" height="100" viewBox="0 0 100 100" fill="none" xmlns="http://www.w3.org/2000/svg">
<path opacity="0.5" d="M91.6668 49.9997C91.6668 73.0113 73.0118 91.6663 50.0002 91.6663C26.9883 91.6663 8.3335 73.0113 8.3335 49.9997C8.3335 26.9878 26.9883 8.33301 50.0002 8.33301C73.0118 8.33301 91.6668 26.9878 91.6668 49.9997Z" fill="#DFCEFD"/>
<path d="M33.6507 35.9052C33.3335 36.6709 33.3335 37.6416 33.3335 39.583V60.4163C33.3335 62.3576 33.3335 63.3284 33.6507 64.0943C34.0735 65.1151 34.8847 65.9263 35.9057 66.3493C36.6714 66.6663 37.6421 66.6663 39.5835 66.6663C41.5249 66.6663 42.4956 66.6663 43.2614 66.3493C44.2822 65.9263 45.0935 65.1151 45.5164 64.0943C45.8335 63.3284 45.8335 62.3576 45.8335 60.4163V39.583C45.8335 37.6416 45.8335 36.6709 45.5164 35.9052C45.0935 34.8842 44.2822 34.0731 43.2614 33.6502C42.4956 33.333 41.5249 33.333 39.5835 33.333C37.6421 33.333 36.6714 33.333 35.9057 33.6502C34.8847 34.0731 34.0735 34.8842 33.6507 35.9052Z" fill="#634990"/>
<path d="M54.4836 35.9052C54.1665 36.6709 54.1665 37.6416 54.1665 39.583V60.4163C54.1665 62.3576 54.1665 63.3284 54.4836 64.0943C54.9065 65.1151 55.7178 65.9263 56.7386 66.3493C57.5044 66.6663 58.4753 66.6663 60.4165 66.6663C62.3578 66.6663 63.3286 66.6663 64.0944 66.3493C65.1153 65.9263 65.9265 65.1151 66.3494 64.0943C66.6665 63.3284 66.6665 62.3576 66.6665 60.4163V39.583C66.6665 37.6416 66.6665 36.6709 66.3494 35.9052C65.9265 34.8842 65.1153 34.0731 64.0944 33.6502C63.3286 33.333 62.3578 33.333 60.4165 33.333C58.4753 33.333 57.5044 33.333 56.7386 33.6502C55.7178 34.0731 54.9065 34.8842 54.4836 35.9052Z" fill="#634990"/>
</svg>
