<svg width="100" height="100" viewBox="0 0 100 100" fill="none" xmlns="http://www.w3.org/2000/svg">
<path opacity="0.5" d="M91.6668 49.9997C91.6668 73.0113 73.0118 91.6663 50.0002 91.6663C26.9883 91.6663 8.3335 73.0113 8.3335 49.9997C8.3335 26.9878 26.9883 8.33301 50.0002 8.33301C73.0118 8.33301 91.6668 26.9878 91.6668 49.9997Z" fill="#DFCEFD"/>
<path d="M35.7743 35.7738C33.3335 38.2145 33.3335 42.143 33.3335 49.9997C33.3335 57.8563 33.3335 61.7847 35.7743 64.2255C38.215 66.6663 42.1435 66.6663 50.0002 66.6663C57.8568 66.6663 61.7852 66.6663 64.226 64.2255C66.6668 61.7847 66.6668 57.8563 66.6668 49.9997C66.6668 42.143 66.6668 38.2145 64.226 35.7738C61.7852 33.333 57.8568 33.333 50.0002 33.333C42.1435 33.333 38.215 33.333 35.7743 35.7738Z" fill="#634990"/>
</svg>
