<svg width="25" height="25" viewBox="0 0 25 25" fill="none" xmlns="http://www.w3.org/2000/svg">
<g clip-path="url(#clip0_1_2)">
<path d="M14.189 9.375C13.2036 9.375 8.97314 9.47168 6.25 13.5718V9.375C6.25 6.79004 4.14746 4.6875 1.5625 4.6875C0.699707 4.6875 0 5.38721 0 6.25C0 7.11279 0.699707 7.8125 1.5625 7.8125C2.42383 7.8125 3.125 8.51367 3.125 9.375V21.875C3.125 23.5986 4.52637 25 6.25 25H14.8437C15.2754 25 15.625 24.6504 15.625 24.2188V23.4375C15.625 22.5747 14.9253 21.875 14.0625 21.875H12.5L18.75 17.1875V24.2188C18.75 24.6504 19.0996 25 19.5312 25H21.0938C21.5254 25 21.875 24.6504 21.875 24.2188V14.1533C21.3726 14.2837 20.855 14.375 20.3125 14.375C17.2944 14.375 14.7695 12.2241 14.189 9.375ZM21.875 4.6875H18.75L15.625 1.5625V8.125C15.625 10.7139 17.7236 12.8125 20.3125 12.8125C22.9014 12.8125 25 10.7139 25 8.125V1.5625L21.875 4.6875ZM18.3594 8.59375C17.9277 8.59375 17.5781 8.24414 17.5781 7.8125C17.5781 7.38086 17.9277 7.03125 18.3594 7.03125C18.791 7.03125 19.1406 7.38086 19.1406 7.8125C19.1406 8.24414 18.791 8.59375 18.3594 8.59375ZM22.2656 8.59375C21.834 8.59375 21.4844 8.24414 21.4844 7.8125C21.4844 7.38086 21.834 7.03125 22.2656 7.03125C22.6973 7.03125 23.0469 7.38086 23.0469 7.8125C23.0469 8.24414 22.6973 8.59375 22.2656 8.59375Z" fill="black"/>
</g>
<defs>
<clipPath id="clip0_1_2">
<rect width="25" height="25" fill="white"/>
</clipPath>
</defs>
</svg>
