<svg width="21" height="22" viewBox="0 0 21 22" fill="none" xmlns="http://www.w3.org/2000/svg">
<path d="M9 6C13.418 6 17 6.895 17 8C17 9.105 13.418 10 9 10C4.582 10 1 9.105 1 8C1 7.643 1.375 7.307 2.033 7.016" stroke="#F2EBFF" stroke-width="2" stroke-linecap="round" stroke-linejoin="round"/>
<path d="M1 8V17.343C1 18.404 1.44 19.423 2.409 19.856C3.624 20.399 5.711 21 9 21C12.29 21 14.377 20.399 15.591 19.856C16.559 19.423 17 18.404 17 17.343V8M17 9C17.7956 9 18.5587 9.31607 19.1213 9.87868C19.6839 10.4413 20 11.2044 20 12C20 12.7956 19.6839 13.5587 19.1213 14.1213C18.5587 14.6839 17.7956 15 17 15M5 2V6M9 1V3M13 3V6" stroke="#F2EBFF" stroke-width="2" stroke-linecap="round" stroke-linejoin="round"/>
</svg>
