<svg width="26" height="26" viewBox="0 0 26 26" fill="none" xmlns="http://www.w3.org/2000/svg">
<path d="M11.2632 7.5C16.3787 7.5 20.5263 8.4845 20.5263 9.7C20.5263 10.9155 16.3787 11.9 11.2632 11.9C6.14758 11.9 2 10.9155 2 9.7C2 9.3073 2.43421 8.9377 3.19611 8.6176" stroke="#F2EBFF" stroke-width="3" stroke-linecap="round" stroke-linejoin="round"/>
<path d="M2 9.7V19.9773C2 21.1444 2.50947 22.2653 3.63147 22.7416C5.03832 23.3389 7.45484 24 11.2632 24C15.0726 24 17.4892 23.3389 18.8948 22.7416C20.0157 22.2653 20.5263 21.1444 20.5263 19.9773V9.7M20.5263 10.8C21.4476 10.8 22.3311 11.1477 22.9826 11.7665C23.634 12.3854 24 13.2248 24 14.1C24 14.9752 23.634 15.8146 22.9826 16.4335C22.3311 17.0523 21.4476 17.4 20.5263 17.4M6.63158 3.1V7.5M11.2632 2V4.2M15.8947 4.2V7.5" stroke="#F2EBFF" stroke-width="3" stroke-linecap="round" stroke-linejoin="round"/>
</svg>
