<svg width="25" height="25" viewBox="0 0 25 25" fill="none" xmlns="http://www.w3.org/2000/svg">
<path d="M24.2188 4.6875H21.0938L20.7441 3.98877C20.6144 3.72923 20.4149 3.51096 20.1681 3.3584C19.9213 3.20584 19.6368 3.12502 19.3467 3.125H16.7285L15.3965 1.79297C14.9038 1.30078 14.0625 1.64941 14.0625 2.34521V9.66162L20.3125 11.8936V10.1563H21.875C23.6011 10.1563 25 8.75732 25 7.03125V5.46875C25 5.03711 24.6504 4.6875 24.2188 4.6875ZM18.75 7.03125C18.3184 7.03125 17.9688 6.68164 17.9688 6.25C17.9688 5.81836 18.3184 5.46875 18.75 5.46875C19.1816 5.46875 19.5312 5.81836 19.5312 6.25C19.5312 6.68164 19.1816 7.03125 18.75 7.03125ZM4.6875 10.9375C3.82617 10.9375 3.125 10.2363 3.125 9.375C3.125 8.51221 2.42529 7.8125 1.5625 7.8125C0.699707 7.8125 0 8.51221 0 9.375C0 11.4092 1.31006 13.1274 3.125 13.7744V24.2187C3.125 24.6504 3.47461 25 3.90625 25H7.03125C7.46289 25 7.8125 24.6504 7.8125 24.2187V18.75H15.625V24.2187C15.625 24.6504 15.9746 25 16.4062 25H19.5312C19.9629 25 20.3125 24.6504 20.3125 24.2187V13.5522L12.9907 10.9375H4.6875Z" fill="black"/>
</svg>
