<svg width="25" height="25" viewBox="0 0 25 25" fill="none" xmlns="http://www.w3.org/2000/svg">
<g clip-path="url(#clip0_3_7)">
<path d="M14.0625 8.16406V6.79199C12.6855 5.01953 11.7627 2.91992 11.4209 0.678711C11.3184 0.0195312 10.4932 -0.239258 10.0635 0.273438C9.0332 1.48926 8.22266 2.91504 7.67578 4.49707C9.3457 6.36719 11.582 7.65137 14.0625 8.16406ZM19.5313 3.125C17.373 3.125 15.625 4.87793 15.625 7.03613V9.93652C10.5273 9.63379 6.20117 6.49414 4.24805 2.04102C3.97949 1.43066 3.11524 1.39648 2.83203 1.99707C2.02149 3.71094 1.5625 5.625 1.5625 7.64648C1.5625 11.1035 3.22754 14.3311 5.71777 16.7236C6.36231 17.3438 6.99219 17.8564 7.61719 18.3252L0.590821 20.083C0.0683602 20.2148 -0.166015 20.8203 0.126954 21.2744C0.976563 22.5879 3.07617 24.8145 7.60742 25C7.99805 25.0146 8.38867 24.873 8.68652 24.6143L11.8701 21.875H15.625C19.9414 21.875 23.4375 18.3838 23.4375 14.0674V6.25L25 3.125H19.5313ZM19.5313 7.81738C19.1016 7.81738 18.75 7.46582 18.75 7.03613C18.75 6.60645 19.1016 6.25488 19.5313 6.25488C19.9609 6.25488 20.3125 6.60645 20.3125 7.03613C20.3125 7.46582 19.9609 7.81738 19.5313 7.81738Z" fill="black"/>
</g>
<defs>
<clipPath id="clip0_3_7">
<rect width="25" height="25" fill="white"/>
</clipPath>
</defs>
</svg>
