<svg width="32" height="32" viewBox="0 0 32 32" fill="none" xmlns="http://www.w3.org/2000/svg">
<path d="M16.1303 1.20605C7.93118 1.20605 1.26074 7.87649 1.26074 16.0756C1.26074 24.2748 7.93118 30.9452 16.1303 30.9452C24.3294 30.9452 30.9999 24.2748 30.9999 16.0756C30.9999 7.87649 24.3294 1.20605 16.1303 1.20605Z" fill="#FCEA2B"/>
<path d="M16 31C24.2843 31 31 24.2843 31 16C31 7.71573 24.2843 1 16 1C7.71573 1 1 7.71573 1 16C1 24.2843 7.71573 31 16 31Z" stroke="black" stroke-width="2" stroke-miterlimit="10"/>
<path d="M21.674 21.1654C17.547 20.0333 14.2327 20.5746 10.3262 22.4059" stroke="black" stroke-width="2" stroke-linecap="round" stroke-linejoin="round"/>
<path d="M12.0869 12.7387C12.0737 13.2489 11.8618 13.7337 11.4963 14.0899C11.1308 14.4461 10.6407 14.6454 10.1303 14.6454C9.62002 14.6454 9.12988 14.4461 8.7644 14.0899C8.39892 13.7337 8.187 13.2489 8.17383 12.7387C8.17383 11.6594 9.051 10.7822 10.1303 10.7822C11.2097 10.7822 12.0869 11.6594 12.0869 12.7387ZM23.826 12.7387C23.8128 13.2489 23.6009 13.7337 23.2354 14.0899C22.87 14.4461 22.3798 14.6454 21.8695 14.6454C21.3592 14.6454 20.869 14.4461 20.5035 14.0899C20.138 13.7337 19.9261 13.2489 19.913 12.7387C19.913 11.6594 20.7901 10.7822 21.8695 10.7822C22.9488 10.7822 23.826 11.6594 23.826 12.7387Z" fill="black"/>
</svg>
