<svg width="32" height="32" viewBox="0 0 32 32" fill="none" xmlns="http://www.w3.org/2000/svg">
<path d="M16 31C24.2843 31 31 24.2843 31 16C31 7.71573 24.2843 1 16 1C7.71573 1 1 7.71573 1 16C1 24.2843 7.71573 31 16 31Z" fill="#FCEA2B"/>
<path d="M25.5186 19.6777C25.5265 20.6819 25.3335 21.6775 24.9512 22.606C16.8056 24.5821 8.36642 22.8277 7.02294 22.5212C6.65853 21.6178 6.47463 20.6518 6.48164 19.6777H6.55338C6.55338 19.6777 16.2056 22.019 25.3947 19.7234L25.5186 19.6777Z" fill="white"/>
<path d="M24.9507 22.6063C23.7833 25.3911 20.8094 27.3215 16.0225 27.3215C11.1899 27.3215 8.17681 25.3454 7.02246 22.5215C8.36594 22.828 16.8051 24.5824 24.9507 22.6063Z" fill="#EA5A47"/>
<path d="M16 31C24.2843 31 31 24.2843 31 16C31 7.71573 24.2843 1 16 1C7.71573 1 1 7.71573 1 16C1 24.2843 7.71573 31 16 31Z" stroke="black" stroke-width="2" stroke-linecap="round" stroke-linejoin="round"/>
<path d="M25.5186 19.6777C25.5265 20.6819 25.3335 21.6775 24.9512 22.606C16.8056 24.5821 8.36642 22.8277 7.02294 22.5212C6.65853 21.6178 6.47463 20.6518 6.48164 19.6777H6.55338C6.55338 19.6777 16.2056 22.019 25.3947 19.7234L25.5186 19.6777Z" stroke="black" stroke-width="2" stroke-linecap="round" stroke-linejoin="round"/>
<path d="M24.9517 22.6063C23.7843 25.3911 20.8104 27.3215 16.0234 27.3215C11.1908 27.3215 8.17779 25.3454 7.02344 22.5215C8.36692 22.828 16.806 24.5824 24.9517 22.6063Z" stroke="black" stroke-width="2" stroke-linecap="round" stroke-linejoin="round"/>
<path d="M13.1911 13.6551C12.949 13.1101 12.5541 12.6471 12.0541 12.3222C11.5541 11.9972 10.9706 11.8242 10.3744 11.8242C9.77807 11.8242 9.19458 11.9972 8.69462 12.3222C8.19466 12.6471 7.7997 13.1101 7.55762 13.6551M24.4411 13.6551C24.199 13.1101 23.8041 12.6471 23.3041 12.3222C22.8041 11.9972 22.2206 11.8242 21.6244 11.8242C21.0281 11.8242 20.4446 11.9972 19.9446 12.3222C19.4447 12.6471 19.0497 13.1101 18.8076 13.6551" stroke="black" stroke-width="2" stroke-miterlimit="10" stroke-linecap="round"/>
</svg>
