<svg width="16" height="16" viewBox="0 0 16 16" fill="none" xmlns="http://www.w3.org/2000/svg">
<path d="M7.66663 14.0001C4.35329 14.0001 1.66663 12.4509 1.66663 9.80012V9.74732C1.66663 8.47652 2.55863 7.46012 3.91663 6.80012C5.21596 6.16892 5.98396 5.00612 5.79196 3.80012L5.41663 2.00012L6.80729 2.47712C9.31196 3.33512 11.398 4.82432 12.75 6.71672C13.3444 7.53877 13.6627 8.49772 13.6666 9.47852V9.80012C13.6666 10.7373 13.3306 11.5371 12.75 12.1791" stroke="black" stroke-width="3" stroke-linecap="round" stroke-linejoin="round"/>
<path d="M7.66663 14.0001C6.56196 14.0001 5.66663 13.1403 5.66663 12.0801C5.66663 11.2401 6.34396 10.5675 6.93996 9.95127L7.66663 9.20007L8.39329 9.95127C8.98929 10.5681 9.66663 11.2401 9.66663 12.0801C9.66663 13.1403 8.77129 14.0001 7.66663 14.0001Z" stroke="black" stroke-width="3" stroke-linecap="round" stroke-linejoin="round"/>
</svg>
