<svg width="26" height="29" viewBox="0 0 26 29" fill="none" xmlns="http://www.w3.org/2000/svg">
<path d="M13 26.7222C6.92556 26.7222 2 23.5664 2 18.1667V18.0591C2 15.4704 3.63533 13.4 6.125 12.0555C8.50711 10.7698 9.91511 8.4011 9.56311 5.94444L8.875 2.27777L11.4246 3.24944C16.0164 4.99722 19.8408 8.03077 22.3194 11.8857C23.4093 13.5602 23.9928 15.5136 24 17.5115V18.1667C24 20.0758 23.384 21.705 22.3194 23.0128" stroke="#27085A" stroke-width="3" stroke-linecap="round" stroke-linejoin="round"/>
<path d="M13 26.7222C10.9748 26.7222 9.33333 24.9708 9.33333 22.8111C9.33333 21.1 10.5751 19.7299 11.6678 18.4747L13 16.9444L14.3322 18.4747C15.4249 19.7311 16.6667 21.1 16.6667 22.8111C16.6667 24.9708 15.0252 26.7222 13 26.7222Z" stroke="#27085A" stroke-width="3" stroke-linecap="round" stroke-linejoin="round"/>
</svg>
