<svg width="177" height="170" viewBox="0 0 177 170" fill="none" xmlns="http://www.w3.org/2000/svg">
<path d="M152.431 55.1621C152.431 54.1605 152.199 53.1717 151.752 52.2693C151.305 51.3668 150.654 50.5738 149.848 49.9492C147.413 48.5826 143.669 48.9766 139.656 49.4115C138.666 49.518 137.661 49.6236 136.65 49.711C132.137 50.081 127.265 49.9879 123.734 48.8382C118.22 47.0531 113.378 42.4969 110.009 37.9817C106.215 32.7669 100.061 36.4189 95.3009 39.2444C94.411 39.7689 93.5654 40.2721 92.7994 40.6814C89.4541 42.4455 85.351 44.4849 80.9338 46.3866C80.0022 45.7467 78.9211 45.3426 77.7883 45.2109C76.6556 45.0793 75.5069 45.2242 74.4463 45.6326C73.3857 46.0411 72.4467 46.7001 71.7142 47.55C70.9817 48.3999 70.479 49.414 70.2514 50.5003C67.125 51.656 64.1485 52.7726 61.3126 53.8526C60.3584 52.9004 59.1332 52.2471 57.7941 51.9765C56.455 51.706 55.0633 51.8305 53.7977 52.3342C52.532 52.8379 51.4502 53.6978 50.6911 54.8033C49.932 55.9089 49.5303 57.2097 49.5376 58.5387C38.2534 63.2385 29.8729 67.5044 23.785 72.0712C18.6278 75.9517 14.8899 80.1897 12.4101 85.2567C9.97147 90.2544 8.9641 95.6164 8.57938 101.397C8.06189 109.227 14.6752 115.162 22.0976 115.162L138.718 115.161C142.356 115.161 145.846 113.756 148.419 111.256C150.992 108.755 152.437 105.364 152.437 101.828L152.437 95.1622L104.417 95.1628C102.606 95.1512 100.873 94.4437 99.5959 93.1949C98.3192 91.946 97.6027 90.2571 97.6026 88.4968C97.6026 86.7364 98.3191 85.0475 99.5958 83.7986C100.872 82.5498 106.092 87.1864 107.903 87.1747L151.752 78.5209L152.431 55.1621Z" fill="#634990"/>
<ellipse cx="98.8216" cy="50.2393" rx="6.12731" ry="5.95413" fill="#FCD29F"/>
<ellipse cx="98.3113" cy="50.7351" rx="4.59548" ry="4.4656" fill="#634990"/>
</svg>
