<svg width="57" height="56" viewBox="0 0 57 56" fill="none" xmlns="http://www.w3.org/2000/svg">
<path d="M43.5 39.7105V28.6365C43.5 27.7442 43.316 26.8611 42.9593 26.0412C42.6026 25.2212 42.0806 24.4814 41.425 23.8668L30.7967 13.9046C30.1772 13.3238 29.3553 13 28.5008 13C27.6464 13 26.8245 13.3238 26.205 13.9046L15.575 23.8668C14.9194 24.4814 14.3974 25.2212 14.0407 26.0412C13.684 26.8611 13.5 27.7442 13.5 28.6365V39.7105C13.5 40.5829 13.8512 41.4196 14.4763 42.0365C15.1014 42.6534 15.9493 43 16.8333 43H40.1667C41.0507 43 41.8986 42.6534 42.5237 42.0365C43.1488 41.4196 43.5 40.5829 43.5 39.7105Z" stroke="#F9F6FF" stroke-width="3" stroke-linecap="round" stroke-linejoin="round"/>
<path d="M23.5001 33.1315C23.5001 32.2591 23.8513 31.4224 24.4764 30.8055C25.1016 30.1886 25.9494 29.842 26.8335 29.842H30.1668C31.0508 29.842 31.8987 30.1886 32.5238 30.8055C33.1489 31.4224 33.5001 32.2591 33.5001 33.1315V42.9999H23.5001V33.1315Z" stroke="#F9F6FF" stroke-width="3" stroke-linecap="round" stroke-linejoin="round"/>
</svg>
