<svg width="74" height="74" viewBox="0 0 74 74" fill="none" xmlns="http://www.w3.org/2000/svg">
<path d="M55 51.9427V38.2849C55 37.1843 54.7731 36.0953 54.3332 35.084C53.8932 34.0727 53.2494 33.1603 52.4408 32.4023L39.3326 20.1157C38.5685 19.3994 37.5549 19 36.501 19C35.4472 19 34.4335 19.3994 33.6695 20.1157L20.5592 32.4023C19.7506 33.1603 19.1068 34.0727 18.6668 35.084C18.2269 36.0953 18 37.1843 18 38.2849V51.9427C18 53.0187 18.4331 54.0506 19.2041 54.8115C19.9751 55.5723 21.0208 55.9997 22.1111 55.9997H50.8889C51.9792 55.9997 53.0249 55.5723 53.7959 54.8115C54.5669 54.0506 55 53.0187 55 51.9427Z" stroke="black" stroke-width="3" stroke-linecap="round" stroke-linejoin="round"/>
<path d="M30.333 43.8275C30.333 42.7515 30.7661 41.7196 31.5371 40.9588C32.3081 40.1979 33.3538 39.7705 34.4441 39.7705H38.5552C39.6456 39.7705 40.6912 40.1979 41.4622 40.9588C42.2332 41.7196 42.6663 42.7515 42.6663 43.8275V55.9985H30.333V43.8275Z" stroke="black" stroke-width="3" stroke-linecap="round" stroke-linejoin="round"/>
</svg>
