<svg width="197" height="100" viewBox="0 0 197 100" fill="none" xmlns="http://www.w3.org/2000/svg">
<rect x="76.75" y="13.5" width="18" height="44" rx="5" fill="#634990"/>
<rect x="102.75" y="13.5" width="18" height="44" rx="5" fill="#634990"/>
<path d="M78.0487 69.3608C78.0487 70.1416 77.8695 70.8584 77.5111 71.5112C77.1527 72.1512 76.6023 72.6696 75.8599 73.0664C75.1175 73.4632 74.1959 73.6616 73.0951 73.6616H71.0599V78.5H67.7767V65.0216H73.0951C74.1703 65.0216 75.0791 65.2072 75.8215 65.5784C76.5639 65.9496 77.1207 66.4616 77.4919 67.1144C77.8631 67.7672 78.0487 68.516 78.0487 69.3608ZM72.8455 71.0504C73.4727 71.0504 73.9399 70.9032 74.2471 70.6088C74.5543 70.3144 74.7079 69.8984 74.7079 69.3608C74.7079 68.8232 74.5543 68.4072 74.2471 68.1128C73.9399 67.8184 73.4727 67.6712 72.8455 67.6712H71.0599V71.0504H72.8455ZM80.0651 73.124C80.0651 72.0232 80.2699 71.0568 80.6795 70.2248C81.1019 69.3928 81.6715 68.7528 82.3883 68.3048C83.1051 67.8568 83.9051 67.6328 84.7883 67.6328C85.5435 67.6328 86.2027 67.7864 86.7659 68.0936C87.3419 68.4008 87.7835 68.804 88.0907 69.3032V67.7864H91.3739V78.5H88.0907V76.9832C87.7707 77.4824 87.3227 77.8856 86.7467 78.1928C86.1835 78.5 85.5243 78.6536 84.7691 78.6536C83.8987 78.6536 83.1051 78.4296 82.3883 77.9816C81.6715 77.5208 81.1019 76.8744 80.6795 76.0424C80.2699 75.1976 80.0651 74.2248 80.0651 73.124ZM88.0907 73.1432C88.0907 72.324 87.8603 71.6776 87.3995 71.204C86.9515 70.7304 86.4011 70.4936 85.7483 70.4936C85.0955 70.4936 84.5387 70.7304 84.0779 71.204C83.6299 71.6648 83.4059 72.3048 83.4059 73.124C83.4059 73.9432 83.6299 74.596 84.0779 75.0824C84.5387 75.556 85.0955 75.7928 85.7483 75.7928C86.4011 75.7928 86.9515 75.556 87.3995 75.0824C87.8603 74.6088 88.0907 73.9624 88.0907 73.1432ZM105.288 67.7864V78.5H102.005V77.0408C101.672 77.5144 101.218 77.8984 100.642 78.1928C100.079 78.4744 99.4516 78.6152 98.7604 78.6152C97.9412 78.6152 97.218 78.436 96.5908 78.0776C95.9636 77.7064 95.4772 77.1752 95.1316 76.484C94.786 75.7928 94.6132 74.98 94.6132 74.0456V67.7864H97.8772V73.604C97.8772 74.3208 98.0628 74.8776 98.434 75.2744C98.8052 75.6712 99.3044 75.8696 99.9316 75.8696C100.572 75.8696 101.077 75.6712 101.448 75.2744C101.82 74.8776 102.005 74.3208 102.005 73.604V67.7864H105.288ZM112.965 78.6536C112.031 78.6536 111.199 78.4936 110.469 78.1736C109.739 77.8536 109.163 77.4184 108.741 76.868C108.319 76.3048 108.082 75.6776 108.031 74.9864H111.275C111.314 75.3576 111.487 75.6584 111.794 75.8888C112.101 76.1192 112.479 76.2344 112.927 76.2344C113.336 76.2344 113.65 76.1576 113.867 76.004C114.098 75.8376 114.213 75.6264 114.213 75.3704C114.213 75.0632 114.053 74.8392 113.733 74.6984C113.413 74.5448 112.895 74.3784 112.178 74.1992C111.41 74.02 110.77 73.8344 110.258 73.6424C109.746 73.4376 109.304 73.124 108.933 72.7016C108.562 72.2664 108.376 71.684 108.376 70.9544C108.376 70.34 108.543 69.7832 108.875 69.284C109.221 68.772 109.72 68.3688 110.373 68.0744C111.039 67.78 111.826 67.6328 112.735 67.6328C114.079 67.6328 115.135 67.9656 115.903 68.6312C116.683 69.2968 117.131 70.18 117.247 71.2808H114.213C114.162 70.9096 113.995 70.6152 113.714 70.3976C113.445 70.18 113.087 70.0712 112.639 70.0712C112.255 70.0712 111.96 70.148 111.755 70.3016C111.551 70.4424 111.448 70.6408 111.448 70.8968C111.448 71.204 111.608 71.4344 111.928 71.588C112.261 71.7416 112.773 71.8952 113.464 72.0488C114.258 72.2536 114.904 72.4584 115.403 72.6632C115.903 72.8552 116.338 73.1752 116.709 73.6232C117.093 74.0584 117.291 74.6472 117.304 75.3896C117.304 76.0168 117.125 76.58 116.767 77.0792C116.421 77.5656 115.915 77.9496 115.25 78.2312C114.597 78.5128 113.835 78.6536 112.965 78.6536ZM130.372 72.9704C130.372 73.2776 130.353 73.5976 130.315 73.9304H122.884C122.935 74.596 123.147 75.108 123.518 75.4664C123.902 75.812 124.369 75.9848 124.919 75.9848C125.739 75.9848 126.308 75.6392 126.628 74.948H130.123C129.943 75.652 129.617 76.2856 129.143 76.8488C128.683 77.412 128.1 77.8536 127.396 78.1736C126.692 78.4936 125.905 78.6536 125.035 78.6536C123.985 78.6536 123.051 78.4296 122.231 77.9816C121.412 77.5336 120.772 76.8936 120.311 76.0616C119.851 75.2296 119.62 74.2568 119.62 73.1432C119.62 72.0296 119.844 71.0568 120.292 70.2248C120.753 69.3928 121.393 68.7528 122.212 68.3048C123.031 67.8568 123.972 67.6328 125.035 67.6328C126.071 67.6328 126.993 67.8504 127.799 68.2856C128.606 68.7208 129.233 69.3416 129.681 70.148C130.142 70.9544 130.372 71.8952 130.372 72.9704ZM127.012 72.1064C127.012 71.5432 126.82 71.0952 126.436 70.7624C126.052 70.4296 125.572 70.2632 124.996 70.2632C124.446 70.2632 123.979 70.4232 123.595 70.7432C123.223 71.0632 122.993 71.5176 122.903 72.1064H127.012Z" fill="#634990"/>
</svg>
