<svg width="56" height="56" viewBox="0 0 56 56" fill="none" xmlns="http://www.w3.org/2000/svg">
<path d="M32.966 17.8955H36.5133C37.2659 17.8955 37.9878 18.19 38.52 18.7143C39.0522 19.2385 39.3511 19.9496 39.3511 20.691V38.8614C39.3511 39.6028 39.0522 40.3138 38.52 40.8381C37.9878 41.3623 37.2659 41.6568 36.5133 41.6568H19.4863C18.7336 41.6568 18.0118 41.3623 17.4796 40.8381C16.9474 40.3138 16.6484 39.6028 16.6484 38.8614V20.691C16.6484 19.9496 16.9474 19.2385 17.4796 18.7143C18.0118 18.19 18.7336 17.8955 19.4863 17.8955H23.0336" stroke="#FBF9FF" stroke-width="3" stroke-linecap="round" stroke-linejoin="round"/>
<path d="M23.2054 17.2177C23.3588 16.6129 23.7131 16.076 24.2118 15.6923C24.7106 15.3086 25.3252 15.1002 25.9581 15.1001H30.0403C30.6731 15.1002 31.2878 15.3086 31.7865 15.6923C32.2853 16.076 32.6395 16.6129 32.793 17.2177L33.6756 20.691H22.3242L23.2054 17.2177Z" stroke="#FBF9FF" stroke-width="3" stroke-linecap="round" stroke-linejoin="round"/>
<path d="M23.7432 29.0771H32.2567M23.7432 34.6681H32.2567" stroke="#FBF9FF" stroke-width="3" stroke-linecap="round"/>
</svg>
