<svg width="74" height="74" viewBox="0 0 74 74" fill="none" xmlns="http://www.w3.org/2000/svg">
<path d="M43.5625 23.6475H48.25C49.2446 23.6475 50.1984 24.0366 50.9016 24.7294C51.6049 25.4222 52 26.3617 52 27.3415V51.3524C52 52.3321 51.6049 53.2717 50.9016 53.9644C50.1984 54.6572 49.2446 55.0464 48.25 55.0464H25.75C24.7554 55.0464 23.8016 54.6572 23.0983 53.9644C22.3951 53.2717 22 52.3321 22 51.3524V27.3415C22 26.3617 22.3951 25.4222 23.0983 24.7294C23.8016 24.0366 24.7554 23.6475 25.75 23.6475H30.4375" stroke="black" stroke-width="3" stroke-linecap="round" stroke-linejoin="round"/>
<path d="M30.6644 22.7513C30.8672 21.9522 31.3353 21.2427 31.9944 20.7357C32.6534 20.2287 33.4656 19.9532 34.3019 19.9531H39.6962C40.5325 19.9532 41.3447 20.2287 42.0038 20.7357C42.6628 21.2427 43.131 21.9522 43.3338 22.7513L44.5 27.3411H29.5L30.6644 22.7513Z" stroke="black" stroke-width="3" stroke-linecap="round" stroke-linejoin="round"/>
<path d="M31.375 38.4229H42.625M31.375 45.8108H42.625" stroke="black" stroke-width="3" stroke-linecap="round"/>
</svg>
