<svg width="27" height="31" viewBox="0 0 27 31" fill="none" xmlns="http://www.w3.org/2000/svg">
<path d="M18.3176 4.79541H21.8649C22.6175 4.79541 23.3393 5.08993 23.8715 5.61418C24.4037 6.13843 24.7027 6.84946 24.7027 7.59086V25.7613C24.7027 26.5027 24.4037 27.2137 23.8715 27.738C23.3393 28.2622 22.6175 28.5568 21.8649 28.5568H4.83784C4.0852 28.5568 3.36338 28.2622 2.83118 27.738C2.29899 27.2137 2 26.5027 2 25.7613V7.59086C2 6.84946 2.29899 6.13843 2.83118 5.61418C3.36338 5.08993 4.0852 4.79541 4.83784 4.79541H8.38514" stroke="#2A2534" stroke-width="3" stroke-linecap="round" stroke-linejoin="round"/>
<path d="M8.55693 4.11755C8.71039 3.51279 9.06465 2.9759 9.56341 2.59222C10.0622 2.20855 10.6768 2.00009 11.3096 2H15.3919C16.0247 2.00009 16.6393 2.20855 17.1381 2.59222C17.6368 2.9759 17.9911 3.51279 18.1446 4.11755L19.0271 7.5909H7.67578L8.55693 4.11755Z" stroke="#2A2534" stroke-width="3" stroke-linecap="round" stroke-linejoin="round"/>
<path d="M9.09448 15.9773H17.608M9.09448 21.5682H17.608" stroke="#2A2534" stroke-width="3" stroke-linecap="round"/>
</svg>
