<svg width="197" height="100" viewBox="0 0 197 100" fill="none" xmlns="http://www.w3.org/2000/svg">
<path d="M76.75 49.4098V21.5902C76.75 17.8733 80.6616 15.4558 83.9861 17.118L111.806 31.0279C115.491 32.8705 115.491 38.1295 111.806 39.9721L83.9861 53.882C80.6616 55.5442 76.75 53.1267 76.75 49.4098Z" fill="#634990"/>
<path d="M64.3359 78.5L61.5327 73.412H60.7455V78.5H57.4623V65.0216H62.9727C64.0351 65.0216 64.9375 65.2072 65.6799 65.5784C66.4351 65.9496 66.9983 66.4616 67.3695 67.1144C67.7407 67.7544 67.9263 68.4712 67.9263 69.2648C67.9263 70.1608 67.6703 70.9608 67.1583 71.6648C66.6591 72.3688 65.9167 72.868 64.9311 73.1624L68.0415 78.5H64.3359ZM60.7455 71.0888H62.7807C63.3823 71.0888 63.8303 70.9416 64.1247 70.6472C64.4319 70.3528 64.5855 69.9368 64.5855 69.3992C64.5855 68.8872 64.4319 68.484 64.1247 68.1896C63.8303 67.8952 63.3823 67.748 62.7807 67.748H60.7455V71.0888ZM81.0465 72.9704C81.0465 73.2776 81.0273 73.5976 80.9889 73.9304H73.5585C73.6097 74.596 73.8209 75.108 74.1921 75.4664C74.5761 75.812 75.0433 75.9848 75.5937 75.9848C76.4129 75.9848 76.9825 75.6392 77.3025 74.948H80.7969C80.6177 75.652 80.2913 76.2856 79.8177 76.8488C79.3569 77.412 78.7745 77.8536 78.0705 78.1736C77.3665 78.4936 76.5793 78.6536 75.7089 78.6536C74.6593 78.6536 73.7249 78.4296 72.9057 77.9816C72.0865 77.5336 71.4465 76.8936 70.9857 76.0616C70.5249 75.2296 70.2945 74.2568 70.2945 73.1432C70.2945 72.0296 70.5185 71.0568 70.9665 70.2248C71.4273 69.3928 72.0673 68.7528 72.8865 68.3048C73.7057 67.8568 74.6465 67.6328 75.7089 67.6328C76.7457 67.6328 77.6673 67.8504 78.4737 68.2856C79.2801 68.7208 79.9073 69.3416 80.3553 70.148C80.8161 70.9544 81.0465 71.8952 81.0465 72.9704ZM77.6865 72.1064C77.6865 71.5432 77.4945 71.0952 77.1105 70.7624C76.7265 70.4296 76.2465 70.2632 75.6705 70.2632C75.1201 70.2632 74.6529 70.4232 74.2689 70.7432C73.8977 71.0632 73.6673 71.5176 73.5777 72.1064H77.6865ZM88.0969 78.6536C87.1625 78.6536 86.3305 78.4936 85.6009 78.1736C84.8713 77.8536 84.2953 77.4184 83.8729 76.868C83.4505 76.3048 83.2137 75.6776 83.1625 74.9864H86.4073C86.4457 75.3576 86.6185 75.6584 86.9257 75.8888C87.2329 76.1192 87.6105 76.2344 88.0585 76.2344C88.4681 76.2344 88.7817 76.1576 88.9993 76.004C89.2297 75.8376 89.3449 75.6264 89.3449 75.3704C89.3449 75.0632 89.1849 74.8392 88.8649 74.6984C88.5449 74.5448 88.0265 74.3784 87.3097 74.1992C86.5417 74.02 85.9017 73.8344 85.3897 73.6424C84.8777 73.4376 84.4361 73.124 84.0649 72.7016C83.6937 72.2664 83.5081 71.684 83.5081 70.9544C83.5081 70.34 83.6745 69.7832 84.0073 69.284C84.3529 68.772 84.8521 68.3688 85.5049 68.0744C86.1705 67.78 86.9577 67.6328 87.8665 67.6328C89.2105 67.6328 90.2665 67.9656 91.0345 68.6312C91.8153 69.2968 92.2633 70.18 92.3785 71.2808H89.3449C89.2937 70.9096 89.1273 70.6152 88.8457 70.3976C88.5769 70.18 88.2185 70.0712 87.7705 70.0712C87.3865 70.0712 87.0921 70.148 86.8873 70.3016C86.6825 70.4424 86.5801 70.6408 86.5801 70.8968C86.5801 71.204 86.7401 71.4344 87.0601 71.588C87.3929 71.7416 87.9049 71.8952 88.5961 72.0488C89.3897 72.2536 90.0361 72.4584 90.5353 72.6632C91.0345 72.8552 91.4697 73.1752 91.8409 73.6232C92.2249 74.0584 92.4233 74.6472 92.4361 75.3896C92.4361 76.0168 92.2569 76.58 91.8985 77.0792C91.5529 77.5656 91.0473 77.9496 90.3817 78.2312C89.7289 78.5128 88.9673 78.6536 88.0969 78.6536ZM105.984 67.7864V78.5H102.701V77.0408C102.368 77.5144 101.914 77.8984 101.338 78.1928C100.774 78.4744 100.147 78.6152 99.456 78.6152C98.6368 78.6152 97.9136 78.436 97.2864 78.0776C96.6592 77.7064 96.1728 77.1752 95.8272 76.484C95.4816 75.7928 95.3088 74.98 95.3088 74.0456V67.7864H98.5728V73.604C98.5728 74.3208 98.7584 74.8776 99.1296 75.2744C99.5008 75.6712 100 75.8696 100.627 75.8696C101.267 75.8696 101.773 75.6712 102.144 75.2744C102.515 74.8776 102.701 74.3208 102.701 73.604V67.7864H105.984ZM122.973 67.6712C124.304 67.6712 125.36 68.0744 126.141 68.8808C126.934 69.6872 127.331 70.8072 127.331 72.2408V78.5H124.067V72.6824C124.067 71.9912 123.881 71.46 123.51 71.0888C123.152 70.7048 122.653 70.5128 122.013 70.5128C121.373 70.5128 120.867 70.7048 120.496 71.0888C120.137 71.46 119.958 71.9912 119.958 72.6824V78.5H116.694V72.6824C116.694 71.9912 116.509 71.46 116.137 71.0888C115.779 70.7048 115.28 70.5128 114.64 70.5128C114 70.5128 113.494 70.7048 113.123 71.0888C112.765 71.46 112.585 71.9912 112.585 72.6824V78.5H109.302V67.7864H112.585V69.1304C112.918 68.6824 113.353 68.3304 113.891 68.0744C114.429 67.8056 115.037 67.6712 115.715 67.6712C116.521 67.6712 117.238 67.844 117.865 68.1896C118.505 68.5352 119.005 69.028 119.363 69.668C119.734 69.0792 120.24 68.5992 120.88 68.228C121.52 67.8568 122.217 67.6712 122.973 67.6712ZM140.686 72.9704C140.686 73.2776 140.667 73.5976 140.629 73.9304H133.198C133.25 74.596 133.461 75.108 133.832 75.4664C134.216 75.812 134.683 75.9848 135.234 75.9848C136.053 75.9848 136.622 75.6392 136.942 74.948H140.437C140.258 75.652 139.931 76.2856 139.458 76.8488C138.997 77.412 138.414 77.8536 137.71 78.1736C137.006 78.4936 136.219 78.6536 135.349 78.6536C134.299 78.6536 133.365 78.4296 132.546 77.9816C131.726 77.5336 131.086 76.8936 130.626 76.0616C130.165 75.2296 129.934 74.2568 129.934 73.1432C129.934 72.0296 130.158 71.0568 130.606 70.2248C131.067 69.3928 131.707 68.7528 132.526 68.3048C133.346 67.8568 134.286 67.6328 135.349 67.6328C136.386 67.6328 137.307 67.8504 138.114 68.2856C138.92 68.7208 139.547 69.3416 139.995 70.148C140.456 70.9544 140.686 71.8952 140.686 72.9704ZM137.326 72.1064C137.326 71.5432 137.134 71.0952 136.75 70.7624C136.366 70.4296 135.886 70.2632 135.31 70.2632C134.76 70.2632 134.293 70.4232 133.909 70.7432C133.538 71.0632 133.307 71.5176 133.218 72.1064H137.326Z" fill="#634990"/>
</svg>
