<svg width="19" height="23" viewBox="0 0 19 23" fill="none" xmlns="http://www.w3.org/2000/svg">
<path d="M17 16L17.87 4.26498C17.9172 3.71587 17.7469 3.17018 17.3957 2.74543C17.0444 2.32069 16.5405 2.05087 15.9923 1.9941C15.444 1.93732 14.8955 2.09813 14.4647 2.44189C14.0339 2.78565 13.7553 3.28485 13.689 3.83198L13 8.99998M5.99999 11L5.28699 6.72098C5.19783 6.19662 4.90931 5.72707 4.48181 5.4106C4.05431 5.09413 3.52097 4.95529 2.99343 5.02312C2.46588 5.09095 1.98502 5.36021 1.65148 5.77453C1.31795 6.18885 1.1576 6.71612 1.20399 7.24598L1.99999 16M9.99999 13V11.5C9.99999 10.9696 9.78928 10.4608 9.41421 10.0858C9.03913 9.7107 8.53043 9.49998 7.99999 9.49998C7.46956 9.49998 6.96085 9.7107 6.58578 10.0858C6.21071 10.4608 5.99999 10.9696 5.99999 11.5V15" stroke="#F2EBFF" stroke-width="2" stroke-linecap="round" stroke-linejoin="round"/>
<path d="M14 13V11C14 10.4696 13.7893 9.96086 13.4142 9.58579C13.0391 9.21071 12.5304 9 12 9C11.4696 9 10.9609 9.21071 10.5858 9.58579C10.2107 9.96086 10 10.4696 10 11V13" stroke="#F2EBFF" stroke-width="2" stroke-linecap="round" stroke-linejoin="round"/>
<path d="M17 16C16.464 20 13.642 22 9.5 22C5.358 22 2 20 2 16" stroke="#F2EBFF" stroke-width="2"/>
<path d="M11.692 17H9C8.46957 17 7.96086 16.7893 7.58579 16.4142C7.21071 16.0391 7 15.5304 7 15C7 14.4696 7.21071 13.9609 7.58579 13.5858C7.96086 13.2107 8.46957 13 9 13H13C15.21 13 17.5 15 16.5 18" stroke="#F2EBFF" stroke-width="2" stroke-linecap="round" stroke-linejoin="round"/>
</svg>
