<svg width="22" height="26" viewBox="0 0 22 26" fill="none" xmlns="http://www.w3.org/2000/svg">
<path d="M19.3694 17.4056L20.3256 4.50814C20.3775 3.90463 20.1903 3.30488 19.8043 2.83806C19.4183 2.37124 18.8644 2.0747 18.2618 2.0123C17.6593 1.9499 17.0564 2.12664 16.5829 2.50445C16.1095 2.88226 15.8033 3.43091 15.7304 4.03225L14.9732 9.7122M7.27973 11.9103L6.4961 7.20744C6.39811 6.63113 6.08101 6.11506 5.61116 5.76724C5.14131 5.41943 4.55514 5.26683 3.97533 5.34138C3.39552 5.41593 2.86703 5.71186 2.50045 6.16722C2.13388 6.62259 1.95764 7.20209 2.00863 7.78444L2.88349 17.4056M11.676 14.1084V12.4599C11.676 11.8769 11.4444 11.3178 11.0322 10.9055C10.6199 10.4933 10.0608 10.2617 9.47786 10.2617C8.89488 10.2617 8.33578 10.4933 7.92355 10.9055C7.51132 11.3178 7.27973 11.8769 7.27973 12.4599V16.3066" stroke="#F2EBFF" stroke-width="3" stroke-linecap="round" stroke-linejoin="round"/>
<path d="M16.0722 14.1085V11.9103C16.0722 11.3274 15.8406 10.7683 15.4284 10.356C15.0162 9.94381 14.4571 9.71222 13.8741 9.71222C13.2911 9.71222 12.732 9.94381 12.3198 10.356C11.9076 10.7683 11.676 11.3274 11.676 11.9103V14.1085" stroke="#F2EBFF" stroke-width="3" stroke-linecap="round" stroke-linejoin="round"/>
<path d="M19.3694 17.4056C18.7803 21.8019 15.6788 24 11.1265 24C6.57414 24 2.88349 21.8019 2.88349 17.4056" stroke="#F2EBFF" stroke-width="3"/>
<path d="M13.5356 18.5047H10.5769C9.99394 18.5047 9.43484 18.2731 9.02261 17.8609C8.61038 17.4487 8.3788 16.8896 8.3788 16.3066C8.3788 15.7236 8.61038 15.1645 9.02261 14.7523C9.43484 14.34 9.99394 14.1085 10.5769 14.1085H14.9732C17.4021 14.1085 19.9189 16.3066 18.8199 19.6038" stroke="#F2EBFF" stroke-width="3" stroke-linecap="round" stroke-linejoin="round"/>
</svg>
