<svg width="393" height="54" viewBox="0 0 393 54" fill="none" xmlns="http://www.w3.org/2000/svg">
<path d="M50.9316 33.6089L54.2935 33.1855C54.382 33.6559 54.5314 33.988 54.7417 34.1816C54.952 34.3753 55.2093 34.4722 55.5137 34.4722C56.056 34.4722 56.4793 34.1982 56.7837 33.6504C57.005 33.2464 57.1711 32.3914 57.2817 31.0854C56.8778 31.5005 56.4627 31.8049 56.0366 31.9985C55.6105 32.1922 55.118 32.2891 54.5591 32.2891C53.4689 32.2891 52.5475 31.9017 51.7949 31.127C51.0479 30.3522 50.6743 29.3727 50.6743 28.1885C50.6743 27.3805 50.8652 26.6445 51.2471 25.9805C51.6289 25.3164 52.1546 24.8156 52.8242 24.478C53.4938 24.1349 54.335 23.9634 55.3477 23.9634C56.5651 23.9634 57.5418 24.1737 58.2778 24.5942C59.0138 25.0093 59.6004 25.6733 60.0376 26.5864C60.4803 27.494 60.7017 28.6948 60.7017 30.189C60.7017 32.3859 60.2396 33.9963 59.3154 35.02C58.3913 36.0382 57.1102 36.5474 55.4722 36.5474C54.5037 36.5474 53.7401 36.4367 53.1812 36.2153C52.6222 35.9884 52.1574 35.6592 51.7866 35.2275C51.4159 34.7959 51.1309 34.2563 50.9316 33.6089ZM57.1572 28.1802C57.1572 27.5216 56.9912 27.007 56.6592 26.6362C56.3271 26.2599 55.9232 26.0718 55.4473 26.0718C54.999 26.0718 54.6255 26.2406 54.3267 26.5781C54.0334 26.9157 53.8867 27.422 53.8867 28.0972C53.8867 28.7778 54.0389 29.298 54.3433 29.6577C54.6532 30.0174 55.0378 30.1973 55.4971 30.1973C55.973 30.1973 56.3687 30.0229 56.6841 29.6743C56.9995 29.3257 57.1572 28.8276 57.1572 28.1802ZM62.4531 27.5244H66.064V30.9111H62.4531V27.5244ZM62.4531 32.9531H66.064V36.3398H62.4531V32.9531ZM73.5928 34.0654H67.4336V31.2847L73.5928 23.9634H76.5396V31.4424H78.0669V34.0654H76.5396V36.3398H73.5928V34.0654ZM73.5928 31.4424V27.6157L70.3389 31.4424H73.5928ZM86.7827 23.9634V36.3398H83.3628V28.23C82.8094 28.6506 82.2726 28.9909 81.7524 29.251C81.2378 29.5111 80.5903 29.7601 79.8101 29.998V27.2256C80.9611 26.8548 81.8548 26.4093 82.4912 25.8892C83.1276 25.369 83.6257 24.7271 83.9854 23.9634H86.7827Z" fill="black"/>
<rect opacity="0.35" x="334" y="23.5" width="24" height="12" rx="3.8" stroke="black"/>
<path opacity="0.4" d="M359.5 27.7812V31.8567C360.305 31.5116 360.828 30.7086 360.828 29.819C360.828 28.9294 360.305 28.1264 359.5 27.7812Z" fill="black"/>
<rect x="335.5" y="25" width="21" height="9" rx="2.5" fill="black"/>
<path fill-rule="evenodd" clip-rule="evenodd" d="M317.771 26.105C320.258 26.1051 322.65 27.0271 324.452 28.6806C324.588 28.8083 324.805 28.8067 324.939 28.677L326.236 27.4135C326.304 27.3478 326.341 27.2587 326.341 27.166C326.34 27.0733 326.302 26.9847 326.233 26.9197C321.502 22.545 314.038 22.545 309.307 26.9197C309.239 26.9847 309.2 27.0733 309.199 27.166C309.199 27.2586 309.236 27.3477 309.304 27.4135L310.602 28.677C310.735 28.8069 310.952 28.8085 311.088 28.6806C312.891 27.027 315.283 26.1049 317.771 26.105ZM317.767 30.3252C319.124 30.3251 320.433 30.8369 321.439 31.761C321.576 31.8922 321.79 31.8893 321.923 31.7546L323.21 30.4353C323.278 30.3661 323.315 30.2722 323.314 30.1747C323.313 30.0771 323.274 29.984 323.205 29.9162C320.141 27.0254 315.396 27.0254 312.332 29.9162C312.263 29.984 312.224 30.0772 312.223 30.1747C312.222 30.2723 312.26 30.3662 312.327 30.4353L313.614 31.7546C313.747 31.8893 313.961 31.8922 314.097 31.761C315.103 30.8375 316.411 30.3258 317.767 30.3252ZM320.292 33.1188C320.294 33.2241 320.256 33.3257 320.189 33.3995L318.012 35.8542C317.949 35.9264 317.862 35.967 317.771 35.967C317.68 35.967 317.593 35.9264 317.529 35.8542L315.352 33.3995C315.285 33.3256 315.248 33.224 315.25 33.1187C315.252 33.0133 315.293 32.9136 315.363 32.843C316.753 31.5291 318.789 31.5291 320.179 32.843C320.249 32.9136 320.29 33.0134 320.292 33.1188Z" fill="black"/>
<path fill-rule="evenodd" clip-rule="evenodd" d="M301.7 24.6814C301.7 24.0483 301.222 23.5352 300.633 23.5352H299.567C298.978 23.5352 298.5 24.0483 298.5 24.6814V34.6153C298.5 35.2484 298.978 35.7616 299.567 35.7616H300.633C301.222 35.7616 301.7 35.2484 301.7 34.6153V24.6814ZM294.266 25.9804H295.333C295.922 25.9804 296.399 26.5059 296.399 27.1542V34.5878C296.399 35.2361 295.922 35.7616 295.333 35.7616H294.266C293.677 35.7616 293.199 35.2361 293.199 34.5878V27.1542C293.199 26.5059 293.677 25.9804 294.266 25.9804ZM289.934 28.6295H288.867C288.278 28.6295 287.801 29.1617 287.801 29.8182V34.5729C287.801 35.2294 288.278 35.7616 288.867 35.7616H289.934C290.523 35.7616 291.001 35.2294 291.001 34.5729V29.8182C291.001 29.1617 290.523 28.6295 289.934 28.6295ZM284.633 31.0748H283.567C282.978 31.0748 282.5 31.5994 282.5 32.2465V34.5899C282.5 35.237 282.978 35.7616 283.567 35.7616H284.633C285.222 35.7616 285.7 35.237 285.7 34.5899V32.2465C285.7 31.5994 285.222 31.0748 284.633 31.0748Z" fill="black"/>
</svg>
