<svg width="197" height="100" viewBox="0 0 197 100" fill="none" xmlns="http://www.w3.org/2000/svg">
<rect x="76.25" y="13.5" width="44" height="44" rx="5" fill="#634990"/>
<path d="M83.5855 67.652V70.3784H87.9823V72.9128H83.5855V75.8696H88.5583V78.5H80.3023V65.0216H88.5583V67.652H83.5855ZM98.1778 67.6712C99.4322 67.6712 100.431 68.0808 101.173 68.9C101.928 69.7064 102.306 70.82 102.306 72.2408V78.5H99.0418V72.6824C99.0418 71.9656 98.8562 71.4088 98.485 71.012C98.1138 70.6152 97.6146 70.4168 96.9874 70.4168C96.3602 70.4168 95.861 70.6152 95.4898 71.012C95.1186 71.4088 94.933 71.9656 94.933 72.6824V78.5H91.6498V67.7864H94.933V69.2072C95.2658 68.7336 95.7138 68.3624 96.277 68.0936C96.8402 67.812 97.4738 67.6712 98.1778 67.6712ZM104.894 73.124C104.894 72.0232 105.099 71.0568 105.509 70.2248C105.931 69.3928 106.501 68.7528 107.218 68.3048C107.934 67.8568 108.734 67.6328 109.618 67.6328C110.322 67.6328 110.962 67.78 111.538 68.0744C112.126 68.3688 112.587 68.7656 112.92 69.2648V64.292H116.203V78.5H112.92V76.964C112.613 77.476 112.171 77.8856 111.595 78.1928C111.032 78.5 110.373 78.6536 109.618 78.6536C108.734 78.6536 107.934 78.4296 107.218 77.9816C106.501 77.5208 105.931 76.8744 105.509 76.0424C105.099 75.1976 104.894 74.2248 104.894 73.124ZM112.92 73.1432C112.92 72.324 112.69 71.6776 112.229 71.204C111.781 70.7304 111.23 70.4936 110.578 70.4936C109.925 70.4936 109.368 70.7304 108.907 71.204C108.459 71.6648 108.235 72.3048 108.235 73.124C108.235 73.9432 108.459 74.596 108.907 75.0824C109.368 75.556 109.925 75.7928 110.578 75.7928C111.23 75.7928 111.781 75.556 112.229 75.0824C112.69 74.6088 112.92 73.9624 112.92 73.1432Z" fill="#634990"/>
</svg>
