<svg width="327" height="986" viewBox="0 0 327 986" fill="none" xmlns="http://www.w3.org/2000/svg">
<path d="M86.7974 163.109L81.5547 167.769L78.642 175.925V196.313L126.992 217.867L152.041 180.585L153.789 151.458L146.216 142.72L142.72 132.235V115.341L152.041 100.195L159.614 83.8846L160.779 61.1658L152.041 30.2917L144.468 18.641L135.148 11.6506L112.429 0H96.118L81.5547 6.99038L65.2438 29.1266L60.001 46.6026L60.5835 91.4575L76.3119 133.4L81.5547 136.895L86.7974 139.225V163.109Z" fill="#DFCEFD"/>
<path d="M297.674 421.753L299.421 404.86L296.509 398.452L278.45 373.985L253.984 339.033L242.333 322.723L230.683 292.431L221.362 273.207L241.168 265.052L251.071 250.489V237.09L255.731 244.663L261.557 259.809L266.8 280.198L272.625 296.509L281.945 309.907L292.431 334.956L298.256 343.694L316.897 392.044L324.47 403.694L326.218 406.025V419.423L325.053 421.753L316.897 438.064L311.072 457.287L309.907 471.268L306.994 478.841L302.334 478.259L300.586 474.181V462.53L295.926 444.472L297.674 421.753Z" fill="#DFCEFD"/>
<path d="M198.528 903.938L203.304 911.428L197.164 917.556L199.21 921.641L195.799 935.939L195.117 940.706L196.481 943.429L198.528 950.238L191.706 959.77L189.659 964.536V978.835L185.565 980.878L177.378 984.963L156.911 985.644L138.49 984.963L127.575 978.154V952.281L147.36 914.151V901.215L150.089 899.853V890.32L156.911 882.831L180.107 880.788L191.023 886.235V903.938H198.528Z" fill="#1F2234"/>
<path d="M133.4 824.282L154.371 897.099L188.74 891.856V836.515V810.884L185.827 793.991L177.672 754.961L173.594 730.495V689.717L168.934 672.241L166.021 654.766V631.464V587.192L182.332 631.464L188.158 657.678L202.721 698.455L211.459 711.271L222.527 716.514L231.265 718.262L238.838 716.514H250.488L259.226 708.941L269.13 687.387L279.615 661.756L292.431 604.085L297.674 552.822L309.907 499.812L306.994 493.987L274.955 503.89L250.488 559.813H246.411V537.094L242.333 509.715L235.343 483.501V474.763L55.9229 483.501L59.418 531.851L65.8259 552.822L75.1464 594.765L90.8748 653.6L106.021 684.475L115.341 713.019V721.757L118.254 730.495V743.31L122.331 774.767L133.4 824.282Z" fill="#634890"/>
<path d="M279.615 510.298L273.207 506.22L267.382 497.482L259.809 490.492L256.896 478.258L263.304 462.53L267.382 456.705L265.634 448.549V428.161L273.207 402.529H292.431L300.586 410.102V418.258L296.509 442.141L300.586 462.53V467.773V474.181L302.334 478.258H307.577V494.569L279.615 510.298Z" fill="#1F2234"/>
<path d="M81.5545 180.002V167.186L64.6611 174.759L43.1074 187.575L25.6314 200.391L21.5537 244.081L25.6314 258.061V277.867H29.7092L35.5345 273.79L56.5056 484.666L71.0689 489.326H128.157H143.885L237.09 476.511L227.187 425.248L206.216 393.791L195.148 358.257V300.586L200.391 273.79L206.216 258.061L212.624 265.052L221.362 273.79L241.751 265.052L252.236 250.488V239.42L248.159 221.944L232.43 184.08L217.867 171.264L195.148 167.186L181.75 163.109L153.206 150.875L143.885 174.759L128.157 192.235H94.3702L81.5545 180.002Z" fill="#1F2234"/>
<path d="M42.5248 262.139L25.6314 277.868L23.8838 329.13L25.6314 344.276L26.7965 354.762L23.8838 366.995L21.5537 385.053V454.957L15.7284 509.715L4.66025 537.677V554.57L1.16506 563.891L0 575.541V588.357H3.49519L5.82532 585.444L6.99038 574.376L12.2332 559.813L15.7284 557.483V559.813L18.0585 572.629L22.1362 593.017H25.0489L28.5441 591.27V588.357H30.2917L32.0393 585.444L33.2043 550.492H35.5344L37.8646 559.813V566.803L39.0296 575.541H40.7772H43.1074L44.855 572.629V548.745V537.677L46.6026 514.958L44.855 507.385L43.1074 494.569L46.6026 478.258L50.0977 459.035L55.3405 442.141L50.0977 318.645L42.5248 262.139Z" fill="#DFCEFD"/>
</svg>
