<svg width="524" height="536" viewBox="0 0 524 536" fill="none" xmlns="http://www.w3.org/2000/svg">
<path fill-rule="evenodd" clip-rule="evenodd" d="M3 531.5L10 535H31.5L47 531.5L50.5 526L52.5 520.5L68.5 517.5L72.5 508.5L68.5 501V488.5L64.5 479V464L68.5 434.5L76.5 392L72.5 345L88.5 332.5L98.5 323.5L132.5 305.5L148.5 290.5L182.5 294L190.5 297L211 317.5L263 350L294.5 375.5L312 392L336.5 403L351 411.5L368 426.5L377 434.5L408.5 449.5L447.5 467.5L466 475.5L468.5 480L472.5 485L471 488.5L474.5 503L472.5 507L478 519.5L479.5 528.5L488 534H515.5L523.5 529.5V511L508.5 483V474L506.5 471.5V466L502 460L485.5 459H481L402 388L370 371.5L336.5 348.5L312 315.5L275 272L254.5 253.5V236.5L252.5 208L250 190.5V171L246 149L242 141.5L234.5 132.5L209.5 119L189.5 111.5L171 105.5V98.5L173.5 89.5L177.5 88L184 82.5L189.5 64V60H185.5V35L179.5 18.5L170 7.5L162.5 3L131 0L121 3L110 19.5L103.5 38L100.5 53L98 56.5V75.5L102 82.5H107L112.5 98.5L118.5 105.5V108.5L96.5 116.5L72.5 128.5L62.5 135L54.5 144L49 155.5L43 171V180L41.5 192.5L39 204.5L35.5 217L33 236.5L31 246V259V266.5L34 273L39 280.5L43.5 282L49 280.5L41 297L34 314L32.5 317.5V328.5L31 335L29.5 345L28 355L26.5 378L29.5 410L35.5 440L39 461.5H31.5V470.5V474.5L27.5 481L15.5 499.5L6 507L3 511.5L0.5 519L1.5 522.5V528L3 531.5ZM81.5 202L85.5 217L79 221L81.5 207.5V202Z" fill="#DFCEFD"/>
<path d="M78 266.5L49.5 279.5L44 290L39 302L32 317L30.5 338L28 352L26 377.5L29 410L39 461.5L38 464L56 470L64.5 464L66.5 452.5L69 431.5L79 402.5V380.5L76 345L87 334L96.5 325.5L109 320.5L129.5 309.5L141.5 299.5L149 291.5L181 294.5L190 296.5L193.5 299.5L208.5 316L225 326L245 339L271 357L288 372L309 389L311.5 392L349.5 411L377.5 435.5L463 475L468 480.5L471.5 475H477V462.5L482.5 459L452 432.5L401.5 387.5L362.5 367L350.5 357L336.5 347.5L325.5 333.5L309.5 311.5L270.5 267L255 253.5L252.5 265L250 276L246 283.5L242 286.5L237.5 291.5L230.5 290.5L225 285L216.5 279.5L201.5 269L190 257L134 257L104 244L78 266.5Z" fill="#634990"/>
<path d="M135 259.5L102 245.5L110.5 236.5L125.5 216L133 208L139.5 203.5L143 201L146.5 198.5L152.5 203.5L159 208L162 213L177 238.5L189.5 257L148 259.5H135Z" fill="#1F2234"/>
<path d="M471.5 475L468 480.5L472.5 485L471 488L473.5 498.5L474 502L473 504L471.5 509L476.5 516L478 519.5V530L481 531.5L487 534.5L502 535L515.5 534.5L523.5 529.5V510.5L509 482.5V473L507 472V465L502 459.5L485 458L477 462V475H471.5Z" fill="#1F2234"/>
<path d="M48.5 465L39 461.5H31.5L31 475L28 480L16.5 498L4.5 506.5L0 519L1.5 522.5V528.5L4.5 536H26.5L47.5 531.5L53 522L62.5 519L68.5 517.5L72.5 508.5L68.5 501.5V488.5L64.5 479V463.5L59.5 465H48.5Z" fill="#1F2234"/>
<path d="M118 196.5L86 217.5L81.5 201V207.5L79 221L33 216L43 168.5L53.5 144L62 135L93.5 117.5L118 109V112L114 117.5C114 117.5 105.833 131.534 109.5 139.5C112.671 146.388 125.5 150.5 125.5 150.5L122 153.5L120 164.5H122L121 174.5V176.5L122 181.5L125.5 183L124 190.5L118 196.5Z" fill="#1F2234"/>
<path d="M185 143L159.5 153L162 159.5L160.5 162.5L162 165.5L164 170.5L161 172V175L169.5 185.5L176.5 195L194.5 212.5L211 226V215L255 216.5L250.5 163.5L246 144L234 130.5L208 116.5L171 104.5V106.5L179 108.5L183.5 114L185 143Z" fill="#1F2234"/>
</svg>
