<svg width="732" height="880" viewBox="0 0 732 880" fill="none" xmlns="http://www.w3.org/2000/svg">
<path d="M225.981 193.921L217.379 155.606H215.815H188.447L165.771 160.298L153.26 162.643L129.02 157.952L114.163 155.606H89.1411L50.8261 157.952H36.7512L32.8415 152.478L28.9318 138.403L22.6762 121.982L19.5485 104.78L15.6388 97.7424L12.511 95.3965L10.1652 87.5771H4.69164V95.3965L0 97.7424L1.56388 106.344L6.25552 129.02L10.1652 142.313L6.25552 138.403H0L1.56388 152.478L10.1652 164.207L17.2027 175.154H28.9318H46.1344L74.2843 179.846L100.088 186.883L129.02 193.921L225.981 196.267V193.921Z" fill="#DFCEFD"/>
<path d="M473.855 180.628L440.232 204.868L496.531 270.551L492.622 276.025L488.712 286.19L484.802 300.265L476.201 332.324L462.126 360.474L456.653 364.384H455.089H421.465L415.21 366.73L406.608 372.203L405.045 376.895V379.241L406.608 381.586L402.699 385.496L405.045 388.624L408.954 391.752L410.518 394.097H415.21H421.465L432.412 388.624H440.232L437.886 394.097L426.157 397.225L424.593 401.135L427.721 402.699L444.142 399.571L462.126 391.752L473.855 385.496L482.457 366.73L492.622 353.437L512.952 319.813L527.809 282.28L530.937 262.732L527.809 254.912L500.441 214.251L473.855 180.628Z" fill="#DFCEFD"/>
<path d="M321.377 133.712L309.648 142.313L304.174 152.478L309.648 171.245L352.654 185.32L393.315 166.553L391.751 137.621L379.24 130.584L376.895 123.546L373.767 104.78L379.24 92.2689L382.368 82.1036H384.714L388.624 54.7358H384.714V50.8261L382.368 36.7512L379.24 23.4582L375.331 14.8569L365.166 3.9097L357.346 0H348.745H341.707L328.414 3.9097L319.813 9.38327L309.648 18.7665L306.52 36.7512V58.6455H302.61L306.52 84.4495L309.648 86.7953L313.558 96.9605L321.377 110.253V118.855V133.712Z" fill="#DFCEFD"/>
<path d="M338.58 401.917L270.551 387.06L263.513 406.609L258.822 433.977L261.95 473.074L274.461 530.937L289.317 590.364L296.355 620.86L300.265 641.191L296.355 672.468L300.265 696.708L311.994 731.114L335.452 796.015V803.052L343.271 815.563L364.384 803.052L357.346 779.594L354.218 745.97L349.527 659.957L340.143 632.589L343.271 620.86V606.003V579.417L349.527 480.111L355.782 473.074L365.947 476.983L375.331 484.021L406.608 509.043L426.939 519.99L466.036 543.448L479.329 555.959L495.749 567.688L513.734 579.417L529.373 601.312L566.124 632.589L620.078 664.649L632.589 675.596L648.228 696.708L676.377 679.506L660.739 664.649L640.408 641.191L609.131 597.402L587.236 571.598L551.267 543.448L526.245 527.027L513.734 509.043L442.578 414.428L441.796 408.173L439.45 401.135L436.322 390.97L420.683 380.805L338.58 401.917Z" fill="#634890"/>
<path d="M636.709 694.408L636.721 702.581L644.46 704.409L644.896 708.597L654.557 718.141L657.428 721.542L657.719 724.334L659.495 730.654L669.434 734.818L673.355 737.559L680.392 748.753L684.546 748.372L692.854 747.611L708.934 738.246L722.769 728.805L727.816 718.196L715.082 697.941L681.097 677.659L674.73 667.531L671.961 667.785L667.27 660.322L658.335 657.758L639.486 667.377L633.769 676.92L642.482 690.779L636.709 694.408Z" fill="#1F2234"/>
<path d="M371.442 799.67L376.214 806.305L371.007 812.315L373.104 815.967L370.853 829.359L370.515 833.797L371.913 836.232L374.17 842.396L368.545 851.588L366.97 856.105L367.813 869.3L364.221 871.422L357.038 875.666L338.518 877.479L321.774 877.917L311.475 872.266L309.95 848.389L325.645 812.057L324.883 800.119L327.277 798.704L326.716 789.907L332.461 782.601L353.375 779.373L363.594 783.767L364.637 800.104L371.442 799.67Z" fill="#1F2234"/>
<path d="M281.498 346.399L269.769 387.842L337.798 401.917L389.406 397.225L433.976 387.842L425.375 363.602V332.324V278.37L433.976 231.454L438.668 207.214L458.217 226.762L480.893 218.943L486.366 196.267L471.51 175.154L458.217 160.297L430.067 149.35L389.406 136.057L383.15 150.132L372.203 160.297L349.527 162.643L326.851 160.297L316.686 154.824L308.866 139.967L292.445 145.441H264.296L239.274 149.35L222.853 154.824H214.251V180.628L222.853 196.267H251.785L276.025 231.454L281.498 251.784L287.754 282.28V318.249L281.498 346.399Z" fill="#1F2234"/>
<path d="M500.441 226.762L482.457 241.619L496.531 272.115L492.622 277.588L488.712 287.754L484.802 301.829L476.201 333.888L462.126 362.038L456.653 365.948H455.089H421.465L415.21 368.293L406.608 373.767L405.045 378.459V380.804L406.608 383.15L402.699 387.06L405.045 390.188L408.954 393.315L410.518 395.661H415.21H421.465L432.412 390.188H440.232L437.886 395.661L426.157 398.789L424.593 402.699L427.721 404.263L444.142 401.135L462.126 393.315L473.855 387.06L482.457 368.293L492.622 355L512.952 321.377L527.809 283.844L530.937 264.295L527.809 256.476L500.441 215.815V226.762Z" fill="#DFCEFD"/>
</svg>
